<svg
 xmlns="http://www.w3.org/2000/svg"
 xmlns:xlink="http://www.w3.org/1999/xlink"
 width="23px" height="39px">
<path fill-rule="evenodd"  fill="rgb(255, 255, 255)"
 d="M18.808,38.609 L0.400,20.398 C0.137,20.138 0.005,19.838 0.005,19.499 C0.005,19.161 0.137,18.861 0.400,18.601 L18.808,0.391 C19.072,0.130 19.375,0.000 19.717,0.000 C20.059,0.000 20.362,0.131 20.625,0.391 L22.600,2.344 C22.864,2.605 22.995,2.905 22.995,3.243 C22.995,3.582 22.864,3.882 22.600,4.142 L7.076,19.499 L22.600,34.857 C22.864,35.117 22.995,35.417 22.995,35.755 C22.995,36.094 22.864,36.394 22.600,36.655 L20.625,38.609 C20.362,38.869 20.059,38.999 19.717,38.999 C19.375,38.999 19.071,38.869 18.808,38.609 Z"/>
</svg>
