<svg
 xmlns="http://www.w3.org/2000/svg"
 xmlns:xlink="http://www.w3.org/1999/xlink"
 width="23px" height="39px">
<path fill-rule="evenodd"  fill="rgb(255, 255, 255)"
 d="M4.192,38.609 L22.600,20.398 C22.863,20.138 22.995,19.838 22.995,19.499 C22.995,19.161 22.863,18.861 22.600,18.601 L4.192,0.391 C3.928,0.130 3.625,0.000 3.283,0.000 C2.941,0.000 2.638,0.131 2.375,0.391 L0.400,2.344 C0.136,2.605 0.005,2.905 0.005,3.243 C0.005,3.582 0.136,3.882 0.400,4.142 L15.924,19.499 L0.400,34.857 C0.136,35.117 0.005,35.417 0.005,35.755 C0.005,36.094 0.136,36.394 0.400,36.655 L2.375,38.609 C2.638,38.869 2.941,38.999 3.283,38.999 C3.625,38.999 3.928,38.869 4.192,38.609 Z"/>
</svg>
