<?xml version="1.0" encoding="utf-8"?>
<!-- Generator: Adobe Illustrator 22.0.1, SVG Export Plug-In . SVG Version: 6.00 Build 0)  -->
<svg version="1.1" id="Слой_1" xmlns="http://www.w3.org/2000/svg" xmlns:xlink="http://www.w3.org/1999/xlink" x="0px" y="0px"
	 viewBox="0 0 512 512" style="enable-background:new 0 0 512 512;" xml:space="preserve">
<style type="text/css">
	.st0{fill:#ae2044;}
</style>
<g>
	<circle class="st0" cx="256" cy="196.9" r="39.4"/>
	<path class="st0" d="M256,0C147.7,0,59.1,88.6,59.1,196.9c0,43.3,13.8,84.7,39.4,118.2l141.8,179c3.9,3.9,9.8,7.9,15.8,7.9
		c5.9,0,11.8-3.9,15.8-7.9l141.8-179c25.6-33.5,39.4-72.9,39.4-118.2C452.9,88.6,364.3,0,256,0z M367.3,279.6L265.2,412.2l-2.3,2.3
		c-4.6,4.6-11.5,2.3-16.1-2.3L144.7,279.6c-18.4-23-26.6-58.9-26.6-88.8c0-75.9,62.1-137.9,137.9-137.9S393.9,115,393.9,190.8
		C393.9,220.7,385.7,256.6,367.3,279.6z"/>
</g>
</svg>
