<?xml version="1.0" encoding="UTF-8" standalone="no"?>
<!-- Generator: Adobe Illustrator 16.0.0, SVG Export Plug-In . SVG Version: 6.00 Build 0)  -->

<svg
   xmlns:dc="http://purl.org/dc/elements/1.1/"
   xmlns:cc="http://creativecommons.org/ns#"
   xmlns:rdf="http://www.w3.org/1999/02/22-rdf-syntax-ns#"
   xmlns:svg="http://www.w3.org/2000/svg"
   xmlns="http://www.w3.org/2000/svg"
   xmlns:sodipodi="http://sodipodi.sourceforge.net/DTD/sodipodi-0.dtd"
   xmlns:inkscape="http://www.inkscape.org/namespaces/inkscape"
   version="1.1"
   id="Capa_1"
   x="0px"
   y="0px"
   width="512px"
   height="512px"
   viewBox="0 0 612.062 612.062"
   style="enable-background:new 0 0 612.062 612.062;"
   xml:space="preserve"
   sodipodi:docname="icon-searching-tool.svg"
   inkscape:version="0.92.2 5c3e80d, 2017-08-06"><metadata
     id="metadata168"><rdf:RDF><cc:Work
         rdf:about=""><dc:format>image/svg+xml</dc:format><dc:type
           rdf:resource="http://purl.org/dc/dcmitype/StillImage" /></cc:Work></rdf:RDF></metadata><defs
     id="defs166" /><sodipodi:namedview
     pagecolor="#ffffff"
     bordercolor="#666666"
     borderopacity="1"
     objecttolerance="10"
     gridtolerance="10"
     guidetolerance="10"
     inkscape:pageopacity="0"
     inkscape:pageshadow="2"
     inkscape:window-width="1286"
     inkscape:window-height="761"
     id="namedview164"
     showgrid="false"
     inkscape:zoom="0.96679688"
     inkscape:cx="256"
     inkscape:cy="256"
     inkscape:window-x="0"
     inkscape:window-y="0"
     inkscape:window-maximized="0"
     inkscape:current-layer="Capa_1" /><g
     id="g131"
     transform="matrix(-1,0,0,1,612.062,0)"><g
       id="g129"><g
         id="g127"><path
           d="m 345.897,207.201 c 0,-38.313 -15.521,-72.999 -40.563,-98.042 l -0.02,-0.02 -0.02,0.02 c -25.083,-25.083 -59.77,-40.624 -98.042,-40.624 -38.312,0 -72.999,15.521 -98.082,40.583 -25.063,25.083 -40.583,59.77 -40.583,98.082 0,38.292 15.54,72.958 40.604,98.042 25.083,25.083 59.77,40.624 98.062,40.624 38.272,0 72.959,-15.521 98.042,-40.624 l 0.479,-0.438 c 24.783,-24.983 40.123,-59.51 40.123,-97.603 z M 318.782,95.651 c 28.569,28.57 46.241,68.018 46.241,111.55 0,43.253 -17.452,82.482 -45.685,110.992 l -0.538,0.578 c -28.549,28.549 -67.998,46.221 -111.568,46.221 -43.572,0 -83.04,-17.672 -111.57,-46.221 -28.53,-28.55 -46.222,-68 -46.222,-111.57 0,-43.552 17.672,-83 46.202,-111.53 l 0.06,-0.04 c 28.53,-28.53 67.998,-46.222 111.53,-46.222 43.572,0 83.02,17.672 111.568,46.222 z"
           id="path117"
           inkscape:connector-curvature="0"
           style="fill:#414353" /><path
           d="m 385.724,312.475 c -2.669,4.523 -8.548,6.037 -13.069,3.349 -4.522,-2.67 -6.037,-8.547 -3.347,-13.07 21.517,-36.459 29.686,-78.656 24.524,-119.439 C 388.771,143.469 370.88,104.877 340.219,74.196 303.5,37.497 255.346,19.128 207.232,19.128 c -48.154,0 -96.309,18.349 -132.967,55.048 l -0.04,0.02 0.02,0.02 c -36.718,36.718 -55.087,84.873 -55.087,132.987 0,48.114 18.369,96.269 55.087,132.986 36.718,36.719 84.853,55.088 132.967,55.088 48.154,0 96.309,-18.369 133.027,-55.088 3.726,-3.705 9.782,-3.687 13.488,0.041 3.705,3.725 3.686,9.78 -0.04,13.487 -40.464,40.443 -93.479,60.687 -146.475,60.687 -53.016,0 -106.071,-20.263 -146.515,-60.687 C 20.253,313.271 0.031,260.217 0.031,207.201 0.031,154.185 20.253,101.13 60.717,60.686 l 0.02,0.02 C 101.201,20.242 154.237,0 207.232,0 c 53.016,0 106.051,20.222 146.515,60.686 33.71,33.71 53.414,76.246 58.993,120.256 5.698,44.927 -3.307,91.388 -27.016,131.533 z"
           id="path119"
           inkscape:connector-curvature="0"
           style="fill:#414353" /><path
           d="m 207.232,98.819 c 5.279,0 9.563,4.284 9.563,9.563 0,5.279 -4.284,9.563 -9.563,9.563 -6.216,0 -12.173,0.618 -17.812,1.733 -5.877,1.195 -11.575,2.968 -16.975,5.26 -5.18,2.191 -10.24,4.96 -15.062,8.208 l -0.458,0.299 c -4.502,3.048 -8.806,6.654 -12.811,10.659 -8.109,8.128 -14.684,17.751 -19.166,28.331 -2.271,5.399 -4.044,11.097 -5.24,16.975 -1.116,5.618 -1.733,11.575 -1.733,17.792 0,5.28 -4.284,9.563 -9.563,9.563 -5.279,0 -9.563,-4.283 -9.563,-9.563 0,-7.232 0.777,-14.444 2.172,-21.517 1.434,-7.152 3.606,-14.066 6.375,-20.641 5.519,-13.029 13.468,-24.744 23.19,-34.467 4.662,-4.662 9.902,-9.005 15.56,-12.871 l 0.558,-0.398 c 5.678,-3.825 11.834,-7.152 18.369,-9.921 6.555,-2.77 13.468,-4.941 20.641,-6.396 7.074,-1.395 14.286,-2.172 21.518,-2.172 z"
           id="path121"
           inkscape:connector-curvature="0"
           style="fill:#414353" /><path
           d="m 340.219,353.717 c -3.726,-3.727 -3.726,-9.803 0,-13.528 3.727,-3.726 9.803,-3.726 13.527,0 l 54.55,54.551 c 3.727,3.725 3.727,9.803 0,13.526 -3.726,3.728 -9.802,3.728 -13.526,0 z"
           id="path123"
           inkscape:connector-curvature="0"
           style="fill:#414353" /><path
           d="m 396.344,396.352 v 0 c 6.675,-6.674 15.461,-10.002 24.227,-10.002 8.746,0 17.513,3.328 24.187,10.002 l 0.021,0.021 0.02,-0.021 0.021,0.021 52.396,52.397 52.398,52.418 52.397,52.418 h 0.02 c 6.673,6.654 10,15.461 10,24.207 0,8.747 -3.327,17.513 -10.002,24.187 l -0.021,0.021 0.021,0.021 -0.021,0.02 h -0.02 c -6.654,6.675 -15.461,10.003 -24.228,10.003 -8.767,0 -17.553,-3.328 -24.207,-10.003 h -0.02 l -52.418,-52.418 -52.418,-52.397 -52.398,-52.398 -0.02,-0.02 c -6.654,-6.674 -10.001,-15.459 -10.001,-24.228 0.043,-8.789 3.391,-17.576 10.066,-24.249 v 0 z m 13.547,13.527 v 0 l -0.021,0.021 c -2.929,2.928 -4.403,6.812 -4.403,10.678 0,3.866 1.476,7.77 4.403,10.699 l 0.021,0.02 52.397,52.398 52.397,52.418 52.397,52.418 h 0.021 c 2.929,2.928 6.812,4.401 10.679,4.401 3.867,0 7.771,-1.475 10.699,-4.401 v 0 l 0.02,-0.021 0.021,0.021 c 2.909,-2.931 4.363,-6.795 4.363,-10.719 0,-3.865 -1.475,-7.75 -4.384,-10.681 l -0.02,-0.02 -52.398,-52.418 -52.418,-52.418 -52.396,-52.398 v -0.02 l 0.02,-0.021 c -2.929,-2.908 -6.794,-4.363 -10.719,-4.363 -3.885,0.004 -7.77,1.478 -10.679,4.406 z"
           id="path125"
           inkscape:connector-curvature="0"
           style="fill:#414353" /></g></g></g><g
     id="g133" /><g
     id="g135" /><g
     id="g137" /><g
     id="g139" /><g
     id="g141" /><g
     id="g143" /><g
     id="g145" /><g
     id="g147" /><g
     id="g149" /><g
     id="g151" /><g
     id="g153" /><g
     id="g155" /><g
     id="g157" /><g
     id="g159" /><g
     id="g161" /></svg>