<?xml version="1.0" encoding="iso-8859-1"?>
<!-- Generator: Adobe Illustrator 19.0.0, SVG Export Plug-In . SVG Version: 6.00 Build 0)  -->
<svg xmlns="http://www.w3.org/2000/svg" xmlns:xlink="http://www.w3.org/1999/xlink" version="1.1" id="Capa_1" x="0px" y="0px" viewBox="0 0 512 512" style="enable-background:new 0 0 512 512;" xml:space="preserve" width="512px" height="512px">
<g>
	<g>
		<path d="M467,26H45C20.187,26,0,46.187,0,71v145h512V71C512,46.187,491.813,26,467,26z M442,111c-8.284,0-15-6.716-15-15    s6.716-15,15-15s15,6.716,15,15S450.284,111,442,111z" fill="#414353"/>
	</g>
</g>
<g>
	<g>
		<path d="M0,246v5c0,24.813,20.187,45,45,45h422c24.813,0,45-20.187,45-45v-5H0z" fill="#414353"/>
	</g>
</g>
<g>
	<g>
		<path d="M255,401c0-11.676,4.802-16.929,12.07-24.878c8.411-9.2,19.93-21.798,19.93-45.122c0-8.284-6.716-15-15-15    s-15,6.716-15,15c0,11.676-4.802,16.929-12.07,24.878C236.519,365.078,225,377.676,225,401c0,23.324,11.519,35.922,19.93,45.122    C252.198,454.071,257,459.324,257,471c0,8.284,6.716,15,15,15s15-6.716,15-15c0-23.324-11.519-35.922-19.93-45.122    C259.802,417.929,255,412.676,255,401z" fill="#414353"/>
	</g>
</g>
<g>
	<g>
		<path d="M355,401c0-11.676,4.802-16.929,12.07-24.878c8.411-9.2,19.93-21.798,19.93-45.122c0-8.284-6.716-15-15-15    s-15,6.716-15,15c0,11.676-4.802,16.929-12.07,24.878C336.519,365.078,325,377.676,325,401c0,23.324,11.519,35.922,19.93,45.122    C352.198,454.071,357,459.324,357,471c0,8.284,6.716,15,15,15s15-6.716,15-15c0-23.324-11.519-35.922-19.93-45.122    C359.802,417.929,355,412.676,355,401z" fill="#414353"/>
	</g>
</g>
<g>
	<g>
		<path d="M155,401c0-11.676,4.802-16.929,12.07-24.878c8.411-9.2,19.93-21.798,19.93-45.122c0-8.284-6.716-15-15-15    s-15,6.716-15,15c0,11.676-4.802,16.929-12.07,24.878C136.519,365.078,125,377.676,125,401c0,23.324,11.519,35.922,19.93,45.122    C152.198,454.071,157,459.324,157,471c0,8.284,6.716,15,15,15s15-6.716,15-15c0-23.324-11.519-35.922-19.93-45.122    C159.802,417.929,155,412.676,155,401z" fill="#414353"/>
	</g>
</g>
<g>
</g>
<g>
</g>
<g>
</g>
<g>
</g>
<g>
</g>
<g>
</g>
<g>
</g>
<g>
</g>
<g>
</g>
<g>
</g>
<g>
</g>
<g>
</g>
<g>
</g>
<g>
</g>
<g>
</g>
</svg>
