<?xml version="1.0" encoding="utf-8"?>
<!-- Generator: Adobe Illustrator 22.0.1, SVG Export Plug-In . SVG Version: 6.00 Build 0)  -->
<svg version="1.1" id="Layer_1" xmlns="http://www.w3.org/2000/svg" xmlns:xlink="http://www.w3.org/1999/xlink" x="0px" y="0px"
	 viewBox="0 0 406.7 512" style="enable-background:new 0 0 406.7 512;" xml:space="preserve">
<style type="text/css">
	.st0{fill:#404252;}
</style>
<path class="st0" d="M-2,510.8C-2,340-2,170.6-2,0.5c2.5-0.2,4.6-0.4,6.8-0.4c70.8,0,141.6-0.4,212.4,0.2
	c29.4,0.3,58.7,3.1,86.4,14.7c36.4,15.2,60.3,40.6,67.3,80.3c9.2,52.3-11.9,107-62.9,131.2c-1.5,0.7-2.8,1.8-4.7,2.9
	c9.7,3.3,18.9,5.9,27.7,9.4c48.7,19.3,74.7,58.6,75.5,110.9c0.6,37.1-8.2,70.9-32.5,99.4c-24.8,29-56.6,47.2-93.8,54.5
	c-21.9,4.3-44.6,6.6-67,6.9c-69,0.9-138,0.3-207.1,0.3C3.8,510.8,1.1,510.8-2,510.8z M126.3,353c0,18.5,0.2,37.1-0.1,55.6
	c-0.1,5.7,1.9,7.3,7.3,7.2c18.8-0.3,37.6,0.5,56.3-0.4c12.8-0.6,25.9-1.9,38.2-5.4c40.4-11.4,58.9-57.3,37.4-91.8
	c-12.3-19.7-32.3-26.2-54-27.1c-26.1-1.1-52.3-0.4-78.4-0.8c-5.3-0.1-6.9,1.9-6.9,7.1C126.4,316,126.3,334.5,126.3,353z
	 M126.3,148.2c0,15.4,0.2,30.8-0.1,46.2c-0.1,5.3,1.7,7.1,7,6.9c7.1-0.4,14.3,0.2,21.4-0.1c14.7-0.7,29.6-0.3,44-2.9
	c19.1-3.5,35.1-12.8,39.8-33.8c1.5-6.7,2.1-13.7,2.1-20.5c0-26.9-17.6-45.9-44.5-47.3c-21.2-1.1-42.4-0.9-63.6-1.5
	c-4.7-0.1-6.3,1.5-6.2,6.2C126.4,116.9,126.3,132.5,126.3,148.2z"/>
</svg>
