<?xml version="1.0" encoding="iso-8859-1"?>
<!-- Generator: Adobe Illustrator 19.0.0, SVG Export Plug-In . SVG Version: 6.00 Build 0)  -->
<svg xmlns="http://www.w3.org/2000/svg" xmlns:xlink="http://www.w3.org/1999/xlink" version="1.1" id="Capa_1" x="0px" y="0px" viewBox="0 0 512 512" style="enable-background:new 0 0 512 512;" xml:space="preserve" width="512px" height="512px">
<g>
	<g>
		<path d="M346,332H166c-74.439,0-135,60.561-135,135v45h450v-45C481,392.561,420.439,332,346,332z M151,482H61v-15    c0-52.805,39.184-96.623,90-103.924V482z M331,482h-30v-30h-30v30h-30v-30h-30v30h-30v-60h150V482z M331,392H181v-30h150V392z     M451,482h-90V363.076c50.816,7.301,90,51.119,90,103.924V482z" fill="#404252"/>
	</g>
</g>
<g>
	<g>
		<path d="M386,117v-17C386,44.859,341.14,0,286,0h-60c-55.14,0-100,44.859-100,100v17H96v30h30v25c0,71.683,58.318,130,130,130    s130-58.317,130-130v-25h30v-30H386z M241,30h30v87h-30V30z M156,100c0-33.448,23.588-61.477,55-68.365V117h-55V100z M356,172    c0,55.141-44.86,100-100,100s-100-44.859-100-100v-25h200V172z M356,117h-55V31.635c31.412,6.888,55,34.917,55,68.365V117z" fill="#404252"/>
	</g>
</g>
<g>
</g>
<g>
</g>
<g>
</g>
<g>
</g>
<g>
</g>
<g>
</g>
<g>
</g>
<g>
</g>
<g>
</g>
<g>
</g>
<g>
</g>
<g>
</g>
<g>
</g>
<g>
</g>
<g>
</g>
</svg>
