<?xml version="1.0" encoding="iso-8859-1"?>
<!-- Generator: Adobe Illustrator 19.0.0, SVG Export Plug-In . SVG Version: 6.00 Build 0)  -->
<svg xmlns="http://www.w3.org/2000/svg" xmlns:xlink="http://www.w3.org/1999/xlink" version="1.1" id="Layer_1" x="0px" y="0px" viewBox="0 0 512 512" style="enable-background:new 0 0 512 512;" xml:space="preserve" width="512px" height="512px">
<g>
	<g>
		<path d="M471.149,343.149h-36.773c-4.512,0-8.17,3.657-8.17,8.17s3.658,8.17,8.17,8.17h28.602v136.17H393.26V379.774    c0-4.513-3.658-8.17-8.17-8.17s-8.17,3.657-8.17,8.17V495.66H307.2v-66.198c0-4.513-3.658-8.17-8.17-8.17s-8.17,3.657-8.17,8.17    v66.198H221.14v-16.513c0-4.513-3.658-8.17-8.17-8.17s-8.17,3.657-8.17,8.17v16.513h-44.141c4.12-5.475,6.887-12.019,7.827-19.13    l293.064-169.202c9.419-5.437,16.164-14.251,18.995-24.815c2.831-10.565,1.396-21.57-4.043-30.988l-43.574-75.473    c-5.438-9.419-14.251-16.165-24.816-18.996c-10.563-2.831-21.569-1.396-30.988,4.043l-31.846,18.387    c-3.908,2.256-5.246,7.253-2.99,11.161c2.256,3.909,7.253,5.245,11.16,2.99l24.771-14.302l68.085,117.928l-60.379,34.86    l-57.944-100.363c-2.256-3.909-7.253-5.245-11.161-2.99c-3.908,2.256-5.246,7.253-2.99,11.16l57.944,100.363l-60.379,34.86    l-33.098-57.327c-2.256-3.909-7.253-5.245-11.161-2.99c-3.908,2.256-5.246,7.253-2.99,11.161l33.097,57.327l-60.379,34.86    l-8.255-14.298c-2.256-3.909-7.253-5.244-11.161-2.99c-3.908,2.256-5.246,7.253-2.99,11.161l8.255,14.298l-53.864,31.099v-7.253    l52.959-91.729c0.004-0.008,43.031-74.531,43.031-74.531c0.003-0.005,43.031-74.531,43.031-74.531    c0.001-0.002,43.031-74.531,43.031-74.531c11.263-19.508,4.555-44.542-14.953-55.805l-75.473-43.574    c-9.419-5.437-20.423-6.875-30.989-4.043c-10.565,2.831-19.378,9.577-24.815,18.996l-18.386,31.845    c-2.256,3.908-0.917,8.904,2.99,11.161c3.906,2.254,8.903,0.917,11.16-2.99l14.301-24.77l117.927,68.085l-34.86,60.379    l-100.363-57.944c-3.908-2.256-8.904-0.918-11.161,2.99c-2.256,3.908-0.917,8.904,2.99,11.16l100.363,57.944l-34.86,60.379    l-57.327-33.098c-3.909-2.255-8.904-0.918-11.161,2.99c-2.256,3.908-0.917,8.904,2.99,11.16l57.327,33.098l-34.86,60.379    l-14.298-8.255c-3.909-2.255-8.904-0.918-11.161,2.99c-2.256,3.908-0.917,8.904,2.99,11.161l14.298,8.255l-34.726,60.146V40.851    C168.851,18.325,150.526,0,128,0H40.851C18.325,0,0,18.325,0,40.851v430.298C0,493.675,18.325,512,40.851,512h430.298    C493.675,512,512,493.675,512,471.149V384C512,361.474,493.675,343.149,471.149,343.149z M393.089,172.407    c3.535-0.645,7.203-0.531,10.796,0.431c6.349,1.703,11.638,5.743,14.894,11.383l43.575,75.473    c3.255,5.639,4.111,12.24,2.41,18.588c-0.963,3.593-2.697,6.827-5.024,9.565L393.089,172.407z M224.153,52.262    c2.738-2.327,5.972-4.061,9.565-5.025c6.349-1.699,12.95-0.845,18.589,2.411l75.473,43.574    c9.225,5.326,13.674,15.783,11.839,25.705L224.153,52.262z M152.511,471.149c0,13.515-10.995,24.511-24.511,24.511H40.851    c-13.516,0-24.511-10.996-24.511-24.511V40.851c0-13.515,10.995-24.511,24.511-24.511H128c13.516,0,24.511,10.996,24.511,24.511    V471.149z M495.66,471.149c0,10.651-6.831,19.733-16.34,23.105v-133.36c9.509,3.373,16.34,12.455,16.34,23.105V471.149z" fill="#414353"/>
	</g>
</g>
<g>
	<g>
		<path d="M84.422,397.621c-16.519,0-29.957,13.439-29.957,29.957c0,16.518,13.438,29.957,29.957,29.957    c16.519,0,29.957-13.439,29.957-29.957C114.38,411.061,100.94,397.621,84.422,397.621z M84.422,441.196    c-7.509,0-13.617-6.108-13.617-13.617c0-7.509,6.108-13.617,13.617-13.617s13.617,6.108,13.617,13.617    C98.039,435.088,91.93,441.196,84.422,441.196z" fill="#414353"/>
	</g>
</g>
<g>
</g>
<g>
</g>
<g>
</g>
<g>
</g>
<g>
</g>
<g>
</g>
<g>
</g>
<g>
</g>
<g>
</g>
<g>
</g>
<g>
</g>
<g>
</g>
<g>
</g>
<g>
</g>
<g>
</g>
</svg>
