<?xml version="1.0" encoding="iso-8859-1"?>
<!-- Generator: Adobe Illustrator 19.0.0, SVG Export Plug-In . SVG Version: 6.00 Build 0)  -->
<svg xmlns="http://www.w3.org/2000/svg" xmlns:xlink="http://www.w3.org/1999/xlink" version="1.1" id="Layer_1" x="0px" y="0px" viewBox="0 0 485 485" style="enable-background:new 0 0 485 485;" xml:space="preserve" width="512px" height="512px">
<path d="M373.75,131.25c-41.348,0-77.496,22.676-96.671,56.242l-19.579-9.421V147.5h-30v30.572l-19.579,9.421  c-19.175-33.567-55.323-56.243-96.671-56.243C49.907,131.25,0,181.157,0,242.5s49.907,111.25,111.25,111.25  c43.371,0,81.021-24.951,99.361-61.25h63.777c18.341,36.299,55.99,61.25,99.361,61.25c61.344,0,111.25-49.907,111.25-111.25  S435.094,131.25,373.75,131.25z M111.25,323.75C66.449,323.75,30,287.301,30,242.5s36.449-81.25,81.25-81.25  s81.25,36.449,81.25,81.25S156.051,323.75,111.25,323.75z M220.695,262.5c1.183-6.49,1.805-13.174,1.805-20  c0-9.352-1.166-18.435-3.349-27.119l23.349-11.235l23.349,11.235c-2.183,8.684-3.349,17.767-3.349,27.119  c0,6.826,0.622,13.51,1.805,20H220.695z M373.75,323.75c-44.802,0-81.25-36.449-81.25-81.25s36.448-81.25,81.25-81.25  S455,197.699,455,242.5S418.552,323.75,373.75,323.75z"/>
<g>
</g>
<g>
</g>
<g>
</g>
<g>
</g>
<g>
</g>
<g>
</g>
<g>
</g>
<g>
</g>
<g>
</g>
<g>
</g>
<g>
</g>
<g>
</g>
<g>
</g>
<g>
</g>
<g>
</g>
</svg>
