<?xml version="1.0" encoding="UTF-8" standalone="no"?>
<svg
   xmlns:dc="http://purl.org/dc/elements/1.1/"
   xmlns:cc="http://creativecommons.org/ns#"
   xmlns:rdf="http://www.w3.org/1999/02/22-rdf-syntax-ns#"
   xmlns:svg="http://www.w3.org/2000/svg"
   xmlns="http://www.w3.org/2000/svg"
   xmlns:sodipodi="http://sodipodi.sourceforge.net/DTD/sodipodi-0.dtd"
   xmlns:inkscape="http://www.inkscape.org/namespaces/inkscape"
   viewBox="0 0 234.4704 234.472"
   height="234.472"
   width="234.4704"
   xml:space="preserve"
   id="svg2"
   version="1.1"
   sodipodi:docname="logo-star-only.svg"
   inkscape:version="0.92.2 5c3e80d, 2017-08-06"><sodipodi:namedview
     pagecolor="#ffffff"
     bordercolor="#666666"
     borderopacity="1"
     objecttolerance="10"
     gridtolerance="10"
     guidetolerance="10"
     inkscape:pageopacity="0"
     inkscape:pageshadow="2"
     inkscape:window-width="1285"
     inkscape:window-height="727"
     id="namedview106"
     showgrid="false"
     fit-margin-top="0"
     fit-margin-left="0"
     fit-margin-right="0"
     fit-margin-bottom="0"
     inkscape:zoom="1.3463642"
     inkscape:cx="251.14818"
     inkscape:cy="120.96847"
     inkscape:window-x="0"
     inkscape:window-y="0"
     inkscape:window-maximized="0"
     inkscape:current-layer="svg2" /><metadata
     id="metadata8"><rdf:RDF><cc:Work
         rdf:about=""><dc:format>image/svg+xml</dc:format><dc:type
           rdf:resource="http://purl.org/dc/dcmitype/StillImage" /><dc:title></dc:title></cc:Work></rdf:RDF></metadata><defs
     id="defs6"><clipPath
       id="clipPath38"
       clipPathUnits="userSpaceOnUse"><path
         id="path36"
         d="M 0,175.853 H 428.933 V 0 H 0 Z"
         inkscape:connector-curvature="0" /></clipPath></defs><g
     transform="matrix(1.3333333,0,0,-1.3333333,-1.3333333e-4,234.47159)"
     id="g10"><g
       transform="translate(79.0191,148.7394)"
       id="g12"><path
         id="path14"
         style="fill:#ae2443;fill-opacity:1;fill-rule:nonzero;stroke:none"
         d="m 0,0 v -5.225 -2.097 -4.955 l 8.908,-3.689 8.908,3.689 V -7.322 -4.176 0 L 8.908,8.907 Z m -53.266,1.361 v -12.597 l 8.682,-8.682 v 12.596 h 12.597 l -8.681,8.683 z m 75.274,-16.439 -7.623,-3.158 7.623,-3.157 v -7.793 l 5.51,5.511 7.623,-3.158 -3.157,7.623 7.696,7.697 -10.618,-0.642 -7.054,7.962 z m 28.503,-22.659 -7.623,3.157 3.157,-7.622 -5.511,-5.511 h 7.794 l 3.157,-7.623 3.158,7.623 h 10.884 l -7.963,7.055 0.643,10.619 z m -90.26,-2.921 -7.964,-7.055 h 10.886 l 3.157,-7.623 3.158,7.623 h 7.793 l -5.51,5.511 3.157,7.622 -7.622,-3.157 -7.698,7.698 z M 0,-47.713 H 3.481 L 5.943,-45.25 0,-39.307 Z m -70.112,-4.192 -8.907,-8.908 8.907,-8.908 h 12.279 l -8.907,8.908 8.907,8.908 z M 0,-73.912 v -8.406 l 5.943,5.944 -2.462,2.462 z m 0,-14.336 v -9.184 l 8.908,-3.689 8.908,3.689 v 9.184 l -8.908,8.909 z m 40.619,-4.276 -3.69,-8.908 3.504,-3.504 5.176,-5.175 h 12.598 v 12.597 l -5.176,5.176 -3.505,3.504 z m -50.323,-5.426 -7.623,3.158 3.157,-7.623 -7.696,-7.696 h 11.188 l 6.485,-7.321 v 10.885 l 7.624,3.157 -7.624,3.157 v 7.794 z m -43.562,-12.439 v -12.598 h 12.598 l 8.681,8.683 h -12.597 v 12.598 z"
         inkscape:connector-curvature="0" /></g><g
       transform="translate(65.5083,153.4347)"
       id="g16"><path
         id="path18"
         style="fill:#3f4252;fill-opacity:1;fill-rule:nonzero;stroke:none"
         d="m 0,0 -8.336,9.096 0.663,-12.431 h -13.555 l 8.681,-8.682 h 12.276 0.594 l 0.314,0.377 8.681,8.681 V 9.319 Z m -6.084,-37.005 -3.69,-8.908 6.494,-6.495 H 9.318 v 12.598 l -6.494,6.494 z m 31.467,-12.94 2.461,-2.463 h 3.482 v 8.406 z M 77.475,-56.6 H 75.91 70.954 l -3.69,-8.908 3.69,-8.908 h 4.956 3.128 4.192 l 8.908,8.908 -8.908,8.908 z M -23.316,-78.608 h -10.886 l 7.963,-7.054 -0.642,-10.618 7.697,7.696 7.623,-3.157 -3.158,7.623 5.511,5.51 h -7.793 l -3.158,7.622 z m 58.835,-26.32 -7.623,-3.157 7.623,-3.158 v -10.884 l 7.054,7.963 10.618,-0.643 -7.696,7.696 3.157,7.623 -7.623,-3.157 -5.51,5.511 z m -13.1,-36.229 -8.908,8.908 v -12.277 l 8.908,-8.909 8.907,8.909 v 12.277 z"
         inkscape:connector-curvature="0" /></g><g
       transform="translate(87.9273,175.8537)"
       id="g20"><path
         id="path22"
         style="fill:#bcb7a9;fill-opacity:1;fill-rule:nonzero;stroke:none"
         d="M 0,0 -8.908,-8.908 V -21.186 L 0,-12.279 8.907,-21.186 v 12.278 z m 49.575,-25.754 -8.682,-8.682 h 12.598 v -12.596 l 8.682,8.681 v 12.597 z M -49.3,-38.627 v -12.598 l 5.176,-5.177 0.011,0.012 3.493,-3.516 8.908,3.69 3.691,8.908 -4.456,4.484 -0.016,-0.014 -4.209,4.211 z m 62.4,-23.602 v -12.598 h 12.597 l 6.494,6.495 -3.689,8.908 -8.908,3.689 z m -34.606,-34.606 h 8.405 v 3.483 l -2.462,2.461 z m 26.931,-4.192 -2.461,-2.461 5.943,-5.945 v 8.406 z m -49.548,-18.425 -5.177,-5.176 v -12.598 h 12.598 l 5.176,5.176 3.505,3.504 -3.691,8.908 -8.908,3.689 z m 66.811,-21.967 h -0.515 l -0.393,-0.376 -8.68,-8.68 v -12.278 l 9.318,9.318 8.336,-9.097 -0.663,12.431 h 13.555 l -8.681,8.682 z"
         inkscape:connector-curvature="0" /></g><g
       transform="translate(118.6809,162.5311)"
       id="g24"><path
         id="path26"
         style="fill:#5b5c70;fill-opacity:1;fill-rule:nonzero;stroke:none"
         d="m 0,0 -8.335,-9.097 -9.319,9.32 v -12.279 l 8.68,-8.68 0.431,-0.377 h 0.478 12.276 l 8.682,8.682 H -0.663 Z m -39.662,-37.985 v -9.185 l 8.908,-8.908 8.907,8.908 v 9.185 l -8.907,3.689 z m -4.192,9.116 v 10.885 l -7.054,-7.963 -10.619,0.642 7.696,-7.697 -3.157,-7.623 7.623,3.158 5.511,-5.511 v 7.793 l 7.623,3.158 z m -49.449,-32.635 8.681,8.681 0.376,0.34 v 0.568 12.276 l -8.682,8.682 v -13.556 l -12.431,0.662 9.097,-8.335 -9.319,-9.318 z m 9.057,-4.192 h -1.564 -5.756 l -8.909,-8.908 8.909,-8.909 h 4.192 3.128 4.956 l 3.689,8.909 -3.689,8.908 z m 21.3,-28.503 3.689,-8.907 8.908,-3.691 6.495,6.495 v 12.598 h -12.598 z m 16.63,22.559 2.462,2.462 v 3.482 h -8.406 z m -46.987,-16.064 h -12.278 l 9.319,-9.319 -9.097,-8.335 12.431,0.662 v -13.555 l 8.682,8.682 v 12.275 0.446 l -0.376,0.463 z m 89.983,22.008 -8.908,-8.908 8.908,-8.909 h 9.184 l 3.691,8.909 -3.691,8.908 z m 35.114,-22.008 -8.681,-8.681 -0.376,-0.433 v -0.476 -12.275 l 8.682,-8.682 v 13.555 l 12.432,-0.662 -9.098,8.335 9.319,9.319 z m 16.471,22.008 H 35.986 l 8.909,-8.908 -8.909,-8.909 h 12.279 l 8.907,8.909 z m -57.514,0 h -8.405 v -3.482 l 2.462,-2.462 z m -30.413,-57.445 v -4.955 -1.564 -5.756 l 8.908,-8.908 8.907,8.908 v 5.756 1.564 4.955 l -8.907,3.691 z m 34.605,35.437 6.494,-6.495 -3.689,-8.907 -8.908,-3.691 -6.494,6.495 v 12.598 z"
         inkscape:connector-curvature="0" /></g><g
       transform="translate(65.6702,34.4353)"
       id="g28"><path
         id="path30"
         style="fill:#da7a86;fill-opacity:1;fill-rule:nonzero;stroke:none"
         d="m 0,0 h -0.433 -12.276 l -8.682,-8.683 h 13.556 l -0.663,-12.43 8.336,9.096 9.318,-9.318 v 12.278 l -8.68,8.68 z m -5.178,44.583 8.908,8.908 -8.908,8.908 h -9.184 l -3.69,-8.908 3.69,-8.908 z m 69.037,-14.168 7.697,-7.696 -0.643,10.618 7.963,7.055 H 67.991 l -3.157,7.622 -3.157,-7.622 h -7.794 l 5.452,-5.653 -3.099,-7.481 z m -0.984,51.098 3.505,3.504 5.176,5.176 v 12.598 H 58.958 L 54.094,97.927 50.277,94.11 53.968,85.202 Z M 75.748,0 H 63.15 l 8.682,-8.683 H 84.43 V 3.915 l -8.682,8.683 z M 35.356,48.065 v -3.482 h 8.406 l -5.944,5.944 z M 87.765,75.91 96.861,84.245 84.43,83.583 V 97.139 L 75.748,88.457 V 76.181 75.664 l 0.376,-0.392 8.681,-8.68 h 12.278 z m -56.601,-18.729 3.69,-3.69 -3.69,-3.689 v -5.219 h -5.218 l -3.689,-3.689 -3.691,3.689 h -5.217 v 5.219 l -3.69,3.689 3.69,3.69 v 5.218 h 5.217 l 3.691,3.69 3.689,-3.69 h 5.218 z"
         inkscape:connector-curvature="0" /></g><g
       id="g32"><g
         clip-path="url(#clipPath38)"
         id="g34"><g
           transform="translate(309.597,44.0496)"
           id="g40" /></g></g></g></svg>