<?xml version="1.0" encoding="UTF-8" standalone="no"?>
<svg
   xmlns:dc="http://purl.org/dc/elements/1.1/"
   xmlns:cc="http://creativecommons.org/ns#"
   xmlns:rdf="http://www.w3.org/1999/02/22-rdf-syntax-ns#"
   xmlns:svg="http://www.w3.org/2000/svg"
   xmlns="http://www.w3.org/2000/svg"
   viewBox="0 0 571.91064 234.47067"
   height="234.47067"
   width="571.91064"
   xml:space="preserve"
   id="svg2"
   version="1.1"><metadata
     id="metadata8"><rdf:RDF><cc:Work
         rdf:about=""><dc:format>image/svg+xml</dc:format><dc:type
           rdf:resource="http://purl.org/dc/dcmitype/StillImage" /></cc:Work></rdf:RDF></metadata><defs
     id="defs6"><clipPath
       id="clipPath38"
       clipPathUnits="userSpaceOnUse"><path
         id="path36"
         d="M 0,175.853 H 428.933 V 0 H 0 Z" /></clipPath></defs><g
     transform="matrix(1.3333333,0,0,-1.3333333,0,234.47067)"
     id="g10"><g
       transform="translate(79.0191,148.7394)"
       id="g12"><path
         id="path14"
         style="fill:#ae2443;fill-opacity:1;fill-rule:nonzero;stroke:none"
         d="m 0,0 v -5.225 -2.097 -4.955 l 8.908,-3.689 8.908,3.689 V -7.322 -4.176 0 L 8.908,8.907 Z m -53.266,1.361 v -12.597 l 8.682,-8.682 v 12.596 h 12.597 l -8.681,8.683 z m 75.274,-16.439 -7.623,-3.158 7.623,-3.157 v -7.793 l 5.51,5.511 7.623,-3.158 -3.157,7.623 7.696,7.697 -10.618,-0.642 -7.054,7.962 z m 28.503,-22.659 -7.623,3.157 3.157,-7.622 -5.511,-5.511 h 7.794 l 3.157,-7.623 3.158,7.623 h 10.884 l -7.963,7.055 0.643,10.619 z m -90.26,-2.921 -7.964,-7.055 h 10.886 l 3.157,-7.623 3.158,7.623 h 7.793 l -5.51,5.511 3.157,7.622 -7.622,-3.157 -7.698,7.698 z M 0,-47.713 H 3.481 L 5.943,-45.25 0,-39.307 Z m -70.112,-4.192 -8.907,-8.908 8.907,-8.908 h 12.279 l -8.907,8.908 8.907,8.908 z M 0,-73.912 v -8.406 l 5.943,5.944 -2.462,2.462 z m 0,-14.336 v -9.184 l 8.908,-3.689 8.908,3.689 v 9.184 l -8.908,8.909 z m 40.619,-4.276 -3.69,-8.908 3.504,-3.504 5.176,-5.175 h 12.598 v 12.597 l -5.176,5.176 -3.505,3.504 z m -50.323,-5.426 -7.623,3.158 3.157,-7.623 -7.696,-7.696 h 11.188 l 6.485,-7.321 v 10.885 l 7.624,3.157 -7.624,3.157 v 7.794 z m -43.562,-12.439 v -12.598 h 12.598 l 8.681,8.683 h -12.597 v 12.598 z" /></g><g
       transform="translate(65.5083,153.4347)"
       id="g16"><path
         id="path18"
         style="fill:#3f4252;fill-opacity:1;fill-rule:nonzero;stroke:none"
         d="m 0,0 -8.336,9.096 0.663,-12.431 h -13.555 l 8.681,-8.682 h 12.276 0.594 l 0.314,0.377 8.681,8.681 V 9.319 Z m -6.084,-37.005 -3.69,-8.908 6.494,-6.495 H 9.318 v 12.598 l -6.494,6.494 z m 31.467,-12.94 2.461,-2.463 h 3.482 v 8.406 z M 77.475,-56.6 H 75.91 70.954 l -3.69,-8.908 3.69,-8.908 h 4.956 3.128 4.192 l 8.908,8.908 -8.908,8.908 z M -23.316,-78.608 h -10.886 l 7.963,-7.054 -0.642,-10.618 7.697,7.696 7.623,-3.157 -3.158,7.623 5.511,5.51 h -7.793 l -3.158,7.622 z m 58.835,-26.32 -7.623,-3.157 7.623,-3.158 v -10.884 l 7.054,7.963 10.618,-0.643 -7.696,7.696 3.157,7.623 -7.623,-3.157 -5.51,5.511 z m -13.1,-36.229 -8.908,8.908 v -12.277 l 8.908,-8.909 8.907,8.909 v 12.277 z" /></g><g
       transform="translate(87.9273,175.8537)"
       id="g20"><path
         id="path22"
         style="fill:#bcb7a9;fill-opacity:1;fill-rule:nonzero;stroke:none"
         d="M 0,0 -8.908,-8.908 V -21.186 L 0,-12.279 8.907,-21.186 v 12.278 z m 49.575,-25.754 -8.682,-8.682 h 12.598 v -12.596 l 8.682,8.681 v 12.597 z M -49.3,-38.627 v -12.598 l 5.176,-5.177 0.011,0.012 3.493,-3.516 8.908,3.69 3.691,8.908 -4.456,4.484 -0.016,-0.014 -4.209,4.211 z m 62.4,-23.602 v -12.598 h 12.597 l 6.494,6.495 -3.689,8.908 -8.908,3.689 z m -34.606,-34.606 h 8.405 v 3.483 l -2.462,2.461 z m 26.931,-4.192 -2.461,-2.461 5.943,-5.945 v 8.406 z m -49.548,-18.425 -5.177,-5.176 v -12.598 h 12.598 l 5.176,5.176 3.505,3.504 -3.691,8.908 -8.908,3.689 z m 66.811,-21.967 h -0.515 l -0.393,-0.376 -8.68,-8.68 v -12.278 l 9.318,9.318 8.336,-9.097 -0.663,12.431 h 13.555 l -8.681,8.682 z" /></g><g
       transform="translate(118.6809,162.5311)"
       id="g24"><path
         id="path26"
         style="fill:#5b5c70;fill-opacity:1;fill-rule:nonzero;stroke:none"
         d="m 0,0 -8.335,-9.097 -9.319,9.32 v -12.279 l 8.68,-8.68 0.431,-0.377 h 0.478 12.276 l 8.682,8.682 H -0.663 Z m -39.662,-37.985 v -9.185 l 8.908,-8.908 8.907,8.908 v 9.185 l -8.907,3.689 z m -4.192,9.116 v 10.885 l -7.054,-7.963 -10.619,0.642 7.696,-7.697 -3.157,-7.623 7.623,3.158 5.511,-5.511 v 7.793 l 7.623,3.158 z m -49.449,-32.635 8.681,8.681 0.376,0.34 v 0.568 12.276 l -8.682,8.682 v -13.556 l -12.431,0.662 9.097,-8.335 -9.319,-9.318 z m 9.057,-4.192 h -1.564 -5.756 l -8.909,-8.908 8.909,-8.909 h 4.192 3.128 4.956 l 3.689,8.909 -3.689,8.908 z m 21.3,-28.503 3.689,-8.907 8.908,-3.691 6.495,6.495 v 12.598 h -12.598 z m 16.63,22.559 2.462,2.462 v 3.482 h -8.406 z m -46.987,-16.064 h -12.278 l 9.319,-9.319 -9.097,-8.335 12.431,0.662 v -13.555 l 8.682,8.682 v 12.275 0.446 l -0.376,0.463 z m 89.983,22.008 -8.908,-8.908 8.908,-8.909 h 9.184 l 3.691,8.909 -3.691,8.908 z m 35.114,-22.008 -8.681,-8.681 -0.376,-0.433 v -0.476 -12.275 l 8.682,-8.682 v 13.555 l 12.432,-0.662 -9.098,8.335 9.319,9.319 z m 16.471,22.008 H 35.986 l 8.909,-8.908 -8.909,-8.909 h 12.279 l 8.907,8.909 z m -57.514,0 h -8.405 v -3.482 l 2.462,-2.462 z m -30.413,-57.445 v -4.955 -1.564 -5.756 l 8.908,-8.908 8.907,8.908 v 5.756 1.564 4.955 l -8.907,3.691 z m 34.605,35.437 6.494,-6.495 -3.689,-8.907 -8.908,-3.691 -6.494,6.495 v 12.598 z" /></g><g
       transform="translate(65.6702,34.4353)"
       id="g28"><path
         id="path30"
         style="fill:#da7a86;fill-opacity:1;fill-rule:nonzero;stroke:none"
         d="m 0,0 h -0.433 -12.276 l -8.682,-8.683 h 13.556 l -0.663,-12.43 8.336,9.096 9.318,-9.318 v 12.278 l -8.68,8.68 z m -5.178,44.583 8.908,8.908 -8.908,8.908 h -9.184 l -3.69,-8.908 3.69,-8.908 z m 69.037,-14.168 7.697,-7.696 -0.643,10.618 7.963,7.055 H 67.991 l -3.157,7.622 -3.157,-7.622 h -7.794 l 5.452,-5.653 -3.099,-7.481 z m -0.984,51.098 3.505,3.504 5.176,5.176 v 12.598 H 58.958 L 54.094,97.927 50.277,94.11 53.968,85.202 Z M 75.748,0 H 63.15 l 8.682,-8.683 H 84.43 V 3.915 l -8.682,8.683 z M 35.356,48.065 v -3.482 h 8.406 l -5.944,5.944 z M 87.765,75.91 96.861,84.245 84.43,83.583 V 97.139 L 75.748,88.457 V 76.181 75.664 l 0.376,-0.392 8.681,-8.68 h 12.278 z m -56.601,-18.729 3.69,-3.69 -3.69,-3.689 v -5.219 h -5.218 l -3.689,-3.689 -3.691,3.689 h -5.217 v 5.219 l -3.69,3.689 3.69,3.69 v 5.218 h 5.217 l 3.691,3.69 3.689,-3.69 h 5.218 z" /></g><g
       id="g32"><g
         clip-path="url(#clipPath38)"
         id="g34"><g
           transform="translate(309.597,44.0496)"
           id="g40"><path
             id="path42"
             style="fill:#3f4252;fill-opacity:1;fill-rule:nonzero;stroke:none"
             d="m 0,0 c -1.014,0 -1.836,-0.822 -1.836,-1.836 0,-1.015 0.822,-1.837 1.836,-1.837 1.015,0 1.837,0.822 1.837,1.837 C 1.837,-0.822 1.015,0 0,0 m 116.035,-1.836 c 0,1.563 -0.16,2.976 -0.478,4.241 -0.32,1.266 -0.777,2.344 -1.37,3.236 -0.594,0.89 -1.321,1.573 -2.179,2.046 -0.859,0.473 -1.827,0.709 -2.904,0.709 -1.08,0 -2.047,-0.236 -2.906,-0.709 -0.858,-0.473 -1.585,-1.156 -2.178,-2.046 -0.594,-0.892 -1.051,-1.97 -1.371,-3.236 -0.319,-1.265 -0.478,-2.678 -0.478,-4.241 0,-1.563 0.159,-2.976 0.478,-4.242 0.32,-1.266 0.777,-2.344 1.371,-3.235 0.593,-0.891 1.32,-1.574 2.178,-2.046 0.859,-0.474 1.826,-0.71 2.906,-0.71 1.077,0 2.045,0.236 2.904,0.71 0.858,0.472 1.585,1.155 2.179,2.046 0.593,0.891 1.05,1.969 1.37,3.235 0.318,1.266 0.478,2.679 0.478,4.242 m 3.301,0 c 0,-1.629 -0.237,-3.142 -0.71,-4.539 -0.474,-1.397 -1.155,-2.619 -2.047,-3.664 -0.891,-1.046 -1.969,-1.865 -3.234,-2.459 -1.266,-0.595 -2.68,-0.892 -4.241,-0.892 -1.564,0 -2.977,0.297 -4.243,0.892 -1.265,0.594 -2.343,1.413 -3.235,2.459 -0.891,1.045 -1.573,2.267 -2.046,3.664 -0.474,1.397 -0.71,2.91 -0.71,4.539 0,1.606 0.236,3.113 0.71,4.523 0.473,1.407 1.155,2.634 2.046,3.679 0.892,1.045 1.97,1.865 3.235,2.46 1.266,0.594 2.679,0.891 4.243,0.891 1.561,0 2.975,-0.297 4.241,-0.891 1.265,-0.595 2.343,-1.415 3.234,-2.46 0.892,-1.045 1.573,-2.272 2.047,-3.679 0.473,-1.41 0.71,-2.917 0.71,-4.523 M 100.015,33.78 c 2.083,1.148 3.844,2.803 5.286,4.965 1.441,2.162 2.549,4.777 3.323,7.848 0.772,3.069 1.161,6.499 1.161,10.29 0,3.79 -0.389,7.22 -1.161,10.29 -0.774,3.069 -1.882,5.685 -3.323,7.848 -1.442,2.163 -3.203,3.817 -5.286,4.965 -2.081,1.148 -4.432,1.722 -7.047,1.722 -2.616,0 -4.965,-0.574 -7.046,-1.722 -2.083,-1.148 -3.845,-2.802 -5.286,-4.965 -1.442,-2.163 -2.55,-4.779 -3.323,-7.848 -0.775,-3.07 -1.162,-6.5 -1.162,-10.29 0,-3.791 0.387,-7.221 1.162,-10.29 0.773,-3.071 1.881,-5.686 3.323,-7.848 1.441,-2.162 3.203,-3.817 5.286,-4.965 2.081,-1.148 4.43,-1.721 7.046,-1.721 2.615,0 4.966,0.573 7.047,1.721 M 96.938,-11.4 h 0.66 v -1.329 h -2.971 c -0.572,0 -1.282,0.049 -1.667,0.148 -0.385,0.1 -0.693,0.298 -0.924,0.595 -0.231,0.297 -0.391,0.698 -0.478,1.205 -0.089,0.506 -0.133,1.177 -0.133,2.012 v 37.668 c -3.184,0.171 -6.1,0.875 -8.746,2.119 -3.072,1.441 -5.687,3.429 -7.849,5.965 -2.162,2.536 -3.817,5.498 -4.965,8.889 -1.148,3.39 -1.721,7.06 -1.721,11.011 0,3.896 0.573,7.554 1.721,10.971 1.148,3.416 2.803,6.393 4.965,8.929 2.162,2.535 4.777,4.525 7.849,5.966 3.068,1.441 6.498,2.162 10.289,2.162 3.791,0 7.22,-0.721 10.29,-2.162 3.07,-1.441 5.685,-3.431 7.848,-5.966 2.163,-2.536 3.817,-5.513 4.965,-8.929 1.148,-3.417 1.722,-7.075 1.722,-10.971 0,-3.951 -0.574,-7.621 -1.722,-11.011 -1.148,-3.391 -2.802,-6.353 -4.965,-8.889 -2.163,-2.536 -4.778,-4.524 -7.848,-5.965 -2.614,-1.228 -5.493,-1.928 -8.631,-2.11 V -8.1 c 0,-0.99 0.137,-1.788 0.412,-2.392 0.275,-0.606 0.908,-0.908 1.899,-0.908 m -12.946,9.564 c 0,1.452 -0.214,2.777 -0.64,3.978 -0.427,1.199 -1.024,2.227 -1.789,3.086 -0.767,0.858 -1.68,1.518 -2.742,1.98 C 77.76,7.671 76.605,7.901 75.358,7.901 74.877,7.901 74.356,7.857 73.799,7.77 73.241,7.682 72.666,7.549 72.075,7.373 v -18.518 c 1.291,-0.286 2.407,-0.429 3.349,-0.429 1.204,0 2.331,0.225 3.382,0.677 1.049,0.451 1.958,1.1 2.723,1.948 0.767,0.846 1.368,1.87 1.806,3.069 0.437,1.199 0.657,2.547 0.657,4.044 m 2.789,4.605 c 0.539,-1.332 0.809,-2.823 0.809,-4.473 0,-1.607 -0.259,-3.087 -0.776,-4.44 -0.517,-1.353 -1.282,-2.514 -2.293,-3.482 -1.013,-0.969 -2.273,-1.728 -3.781,-2.278 -1.507,-0.55 -3.262,-0.825 -5.264,-0.825 H 68.939 V 4.436 c 0,0.99 -0.137,1.788 -0.412,2.393 -0.275,0.605 -0.908,0.907 -1.898,0.907 h -0.66 v 1.321 h 8.648 c 2.179,0 4.082,-0.253 5.711,-0.759 1.628,-0.507 2.976,-1.222 4.043,-2.146 1.067,-0.924 1.871,-2.052 2.41,-3.383 m -24.242,-6.09 c 0,-1.453 -0.11,-2.707 -0.33,-3.764 -0.22,-1.056 -0.594,-1.931 -1.122,-2.624 -0.528,-0.693 -1.222,-1.205 -2.079,-1.535 -0.859,-0.33 -1.915,-0.495 -3.17,-0.495 -1.101,0 -2.019,0.171 -2.756,0.511 -0.737,0.341 -1.337,0.832 -1.799,1.469 -0.462,0.639 -0.792,1.414 -0.99,2.327 -0.198,0.913 -0.297,1.953 -0.297,3.12 v 9.408 c 0,0.814 -0.045,1.479 -0.133,1.997 -0.088,0.516 -0.247,0.924 -0.478,1.221 -0.231,0.297 -0.539,0.496 -0.924,0.594 -0.386,0.1 -0.864,0.149 -1.437,0.149 H 44.055 V 7.736 h 0.66 c 0.989,0 1.622,-0.302 1.897,-0.907 0.275,-0.605 0.412,-1.403 0.412,-2.393 v -7.757 c 0,-1.607 0.138,-3.021 0.414,-4.242 0.275,-1.221 0.737,-2.24 1.386,-3.053 0.649,-0.815 1.513,-1.426 2.591,-1.832 1.078,-0.407 2.421,-0.612 4.027,-0.612 1.695,0 3.086,0.205 4.176,0.612 1.089,0.406 1.947,1.017 2.574,1.832 0.627,0.813 1.062,1.832 1.304,3.053 0.242,1.221 0.363,2.635 0.363,4.242 V 9.057 h -1.32 z M 25.615,8.826 C 25.252,8.672 24.966,8.474 24.757,8.231 24.548,7.989 24.405,7.709 24.328,7.39 24.251,7.07 24.213,6.746 24.213,6.416 V 3.94 h 0.66 c 0,1.321 0.357,2.284 1.072,2.889 0.715,0.605 1.734,0.907 3.054,0.907 h 2.971 v -20.465 h 2.97 V 7.736 h 7.427 V 9.057 H 27.019 c -0.574,0 -1.04,-0.078 -1.404,-0.231 M -8.862,-7.283 -20.416,7.076 c -0.507,0.616 -1.106,1.101 -1.799,1.452 -0.693,0.353 -1.579,0.529 -2.657,0.529 h -2.147 V 7.736 h 0.332 c 1.143,0 1.924,-0.302 2.342,-0.907 0.418,-0.605 0.628,-1.403 0.628,-2.393 v -17.165 h 1.321 V 4.601 L -8.202,-13.06 h 0.66 V 9.057 h -1.32 z m -23.602,3.478 c -0.375,-0.374 -0.611,-0.786 -0.71,-1.237 -0.098,-0.451 -0.148,-0.908 -0.148,-1.37 v -4.502 c -0.639,-0.352 -1.354,-0.633 -2.146,-0.842 -0.792,-0.209 -1.782,-0.313 -2.97,-0.313 -1.08,0 -2.097,0.175 -3.054,0.528 -0.957,0.352 -1.799,0.94 -2.526,1.766 -0.725,0.826 -1.298,1.915 -1.715,3.268 -0.419,1.354 -0.628,3.021 -0.628,5.001 0,1.233 0.148,2.443 0.446,3.631 0.297,1.188 0.764,2.244 1.402,3.169 0.639,0.924 1.458,1.672 2.459,2.244 1.002,0.572 2.206,0.858 3.616,0.858 2.001,0 2.912,-0.484 4.067,-1.452 1.155,-0.968 1.941,-2.41 2.36,-4.324 h 1.329 c 0,0.374 -0.005,0.77 -0.016,1.189 -0.012,0.418 -0.038,0.825 -0.082,1.22 -0.045,0.397 -0.127,0.777 -0.248,1.14 -0.121,0.362 -0.281,0.665 -0.479,0.907 -0.594,0.727 -1.562,1.348 -2.904,1.865 -1.343,0.517 -3.016,0.776 -5.018,0.776 -1.563,0 -2.976,-0.292 -4.242,-0.874 -1.266,-0.584 -2.344,-1.382 -3.234,-2.394 -0.892,-1.012 -1.574,-2.201 -2.047,-3.565 -0.474,-1.364 -0.71,-2.827 -0.71,-4.39 0,-1.65 0.275,-3.197 0.825,-4.638 0.55,-1.441 1.32,-2.702 2.311,-3.78 0.99,-1.078 2.172,-1.926 3.548,-2.541 1.375,-0.616 2.888,-0.925 4.54,-0.925 1.605,0 3.058,0.165 4.357,0.495 1.298,0.331 2.541,0.859 3.729,1.585 v 4.286 c 0,0.483 0.028,0.919 0.082,1.303 0.056,0.385 0.171,0.715 0.348,0.991 0.175,0.275 0.429,0.484 0.759,0.626 0.33,0.144 0.759,0.215 1.287,0.215 v 1.339 c -1.232,0 -2.211,-0.115 -2.937,-0.346 -0.727,-0.232 -1.277,-0.535 -1.651,-0.909 m -21.02,-6.687 c -0.276,0.604 -0.412,1.402 -0.412,2.392 v 38.557 42.041 l 34.433,-42.842 h 1.602 V 83.31 h -3.203 V 43.67 l -28.028,34.835 c -1.228,1.494 -2.683,2.669 -4.365,3.523 -1.682,0.854 -3.831,1.282 -6.446,1.282 h -5.205 v -1.602 h 0.8 c 2.776,0 4.671,-0.734 5.686,-2.202 1.014,-1.469 1.521,-3.403 1.521,-5.807 V 30.457 h 0.002 V -8.769 c 0,-0.835 0.044,-1.506 0.132,-2.012 0.088,-0.507 0.248,-0.908 0.479,-1.205 0.231,-0.297 0.539,-0.495 0.925,-0.595 0.384,-0.099 1.093,-0.148 1.667,-0.148 h 2.969 v 1.329 h -0.66 c -0.989,0 -1.623,0.302 -1.897,0.908 m 74.594,6.329 c -0.33,0.429 -0.755,0.836 -1.271,1.221 -0.518,0.384 -1.128,0.787 -1.832,1.205 l -4.06,2.41 C 13.353,1.024 12.824,1.36 12.362,1.68 11.9,1.998 11.515,2.323 11.207,2.653 c -0.308,0.33 -0.539,0.682 -0.693,1.056 -0.155,0.374 -0.231,0.804 -0.231,1.288 0,0.506 0.11,0.968 0.327,1.386 0.219,0.418 0.504,0.77 0.854,1.056 0.349,0.287 0.754,0.506 1.213,0.661 0.459,0.153 0.929,0.231 1.411,0.231 1.858,0 2.604,-0.474 3.654,-1.42 1.05,-0.946 1.761,-2.53 2.133,-4.753 h 1.367 V 5.69 c 0,0.616 -0.221,1.171 -0.66,1.666 -0.44,0.496 -1.002,0.914 -1.684,1.255 -0.682,0.341 -1.447,0.6 -2.294,0.776 -0.847,0.176 -1.678,0.264 -2.492,0.264 -0.968,0 -1.843,-0.132 -2.624,-0.396 C 10.706,8.991 10.035,8.611 9.475,8.116 8.913,7.621 8.479,7.032 8.17,6.351 7.862,5.668 7.708,4.897 7.708,4.039 7.708,2.807 8,1.762 8.583,0.903 9.166,0.045 10.162,-0.802 11.57,-1.638 l 4.06,-2.41 c 1.211,-0.704 2.118,-1.397 2.724,-2.079 0.605,-0.683 0.908,-1.508 0.908,-2.477 0,-0.549 -0.121,-1.034 -0.362,-1.452 -0.241,-0.418 -0.557,-0.77 -0.951,-1.055 -0.394,-0.287 -0.847,-0.501 -1.362,-0.645 -0.514,-0.142 -1.055,-0.214 -1.623,-0.214 -1.86,0 -2.671,0.484 -3.754,1.452 -1.083,0.968 -1.81,2.564 -2.182,4.787 h -1.32 v -3.533 c 0,-0.616 0.226,-1.172 0.677,-1.667 0.451,-0.495 1.034,-0.919 1.75,-1.27 0.715,-0.353 1.517,-0.621 2.409,-0.809 0.892,-0.186 1.788,-0.28 2.69,-0.28 1.057,0 2.008,0.143 2.856,0.429 0.847,0.286 1.567,0.698 2.162,1.238 0.594,0.538 1.051,1.183 1.369,1.931 0.319,0.748 0.48,1.584 0.48,2.508 0,0.617 -0.083,1.166 -0.248,1.651 -0.166,0.483 -0.413,0.94 -0.743,1.37 m -83.81,0 c -0.33,0.429 -0.754,0.836 -1.271,1.221 -0.517,0.384 -1.129,0.787 -1.832,1.205 l -4.06,2.41 c -0.594,0.351 -1.122,0.687 -1.585,1.007 -0.462,0.318 -0.847,0.643 -1.156,0.973 -0.307,0.33 -0.539,0.682 -0.692,1.056 -0.154,0.374 -0.231,0.804 -0.231,1.288 0,0.506 0.109,0.968 0.328,1.386 0.219,0.418 0.503,0.77 0.852,1.056 0.35,0.287 0.755,0.506 1.214,0.661 0.459,0.153 0.929,0.231 1.41,0.231 1.859,0 2.606,-0.474 3.656,-1.42 1.048,-0.946 1.759,-2.53 2.131,-4.753 h 1.368 V 5.69 c 0,0.616 -0.22,1.171 -0.661,1.666 -0.44,0.496 -1.001,0.914 -1.683,1.255 -0.683,0.341 -1.447,0.6 -2.294,0.776 -0.848,0.176 -1.678,0.264 -2.492,0.264 -0.969,0 -1.843,-0.132 -2.624,-0.396 -0.782,-0.264 -1.452,-0.644 -2.014,-1.139 -0.561,-0.495 -0.996,-1.084 -1.304,-1.765 -0.308,-0.683 -0.463,-1.454 -0.463,-2.312 0,-1.232 0.292,-2.277 0.875,-3.136 0.583,-0.858 1.58,-1.705 2.988,-2.541 l 4.06,-2.41 c 1.21,-0.704 2.117,-1.397 2.724,-2.079 0.604,-0.683 0.907,-1.508 0.907,-2.477 0,-0.549 -0.121,-1.034 -0.361,-1.452 -0.24,-0.418 -0.558,-0.77 -0.951,-1.055 -0.395,-0.287 -0.848,-0.501 -1.362,-0.645 -0.514,-0.142 -1.055,-0.214 -1.624,-0.214 -1.86,0 -2.671,0.484 -3.753,1.452 -1.083,0.968 -1.81,2.564 -2.182,4.787 h -1.321 v -3.533 c 0,-0.616 0.226,-1.172 0.677,-1.667 0.451,-0.495 1.034,-0.919 1.75,-1.27 0.715,-0.353 1.519,-0.621 2.409,-0.809 0.892,-0.186 1.788,-0.28 2.691,-0.28 1.056,0 2.008,0.143 2.855,0.429 0.847,0.286 1.568,0.698 2.162,1.238 0.594,0.538 1.051,1.183 1.371,1.931 0.318,0.748 0.478,1.584 0.478,2.508 0,0.617 -0.083,1.166 -0.247,1.651 -0.166,0.483 -0.413,0.94 -0.743,1.37 m -18.865,-6.421 c -0.87,-0.55 -2.052,-0.825 -3.548,-0.825 h -5.777 v 9.243 h 8.912 v 1.32 h -8.912 v 8.582 h 6.14 c 1.32,0 2.338,-0.302 3.053,-0.907 0.715,-0.605 1.073,-1.568 1.073,-2.889 h 0.66 v 2.476 c 0,0.33 -0.039,0.654 -0.115,0.974 -0.078,0.319 -0.221,0.599 -0.43,0.841 -0.209,0.243 -0.495,0.441 -0.858,0.595 -0.362,0.153 -0.831,0.231 -1.403,0.231 H -96.832 V 7.736 h 0.66 c 0.99,0 1.623,-0.302 1.899,-0.907 0.275,-0.605 0.412,-1.403 0.412,-2.393 v -17.165 h 11.388 c 0.66,0 1.194,0.148 1.601,0.446 0.407,0.297 0.698,0.698 0.875,1.204 l 1.155,3.136 -0.66,0.165 c -0.507,-1.321 -1.193,-2.256 -2.063,-2.806 m -20.615,8.748 c 0,1.452 -0.214,2.777 -0.639,3.978 -0.428,1.199 -1.024,2.227 -1.79,3.086 -0.766,0.858 -1.68,1.518 -2.741,1.98 -1.061,0.463 -2.215,0.693 -3.463,0.693 -0.482,0 -1.001,-0.044 -1.559,-0.131 -0.559,-0.088 -1.133,-0.221 -1.724,-0.397 v -18.518 c 1.291,-0.286 2.408,-0.429 3.349,-0.429 1.203,0 2.33,0.225 3.381,0.677 1.051,0.451 1.958,1.1 2.724,1.948 0.766,0.846 1.368,1.87 1.806,3.069 0.438,1.199 0.656,2.547 0.656,4.044 m 2.79,4.605 c 0.538,-1.332 0.809,-2.823 0.809,-4.473 0,-1.607 -0.26,-3.087 -0.776,-4.44 -0.518,-1.353 -1.283,-2.514 -2.294,-3.482 -1.013,-0.969 -2.273,-1.728 -3.78,-2.278 -1.507,-0.55 -3.262,-0.825 -5.265,-0.825 h -6.535 V 4.436 c 0,0.99 -0.138,1.788 -0.414,2.393 -0.275,0.605 -0.907,0.907 -1.897,0.907 h -0.66 v 1.321 h 8.648 c 2.179,0 4.081,-0.253 5.71,-0.759 1.629,-0.507 2.977,-1.222 4.044,-2.146 1.068,-0.924 1.87,-2.052 2.41,-3.383 M 39.556,28.855 c 2.402,0 4.657,0.214 6.766,0.641 2.109,0.428 4.071,1.161 5.886,2.202 1.814,1.041 3.51,2.403 5.085,4.084 1.574,1.682 3.003,3.777 4.284,6.286 l -1.601,1.202 c -2.243,-3.631 -4.805,-6.407 -7.688,-8.329 -2.883,-1.921 -6.326,-2.882 -10.33,-2.882 -3.417,0 -6.34,0.693 -8.769,2.082 -2.43,1.387 -4.418,3.203 -5.965,5.445 -1.55,2.242 -2.684,4.805 -3.404,7.687 -0.72,2.883 -1.082,5.819 -1.082,8.809 0,4.805 0.507,8.835 1.523,12.092 1.013,3.256 2.402,5.887 4.163,7.889 1.763,2.001 3.805,3.443 6.127,4.324 2.322,0.881 4.791,1.321 7.407,1.321 4.431,0 8.021,-1.229 10.771,-3.684 2.749,-2.457 4.63,-6.299 5.645,-11.532 h 1.602 c 0,2.403 -0.08,4.697 -0.24,6.888 -0.161,2.187 -0.749,3.896 -1.762,5.125 -1.442,1.762 -3.764,3.269 -6.967,4.524 -3.203,1.253 -7.021,1.882 -11.451,1.882 -3.417,0 -6.635,-0.748 -9.65,-2.242 C 26.89,81.174 24.261,79.117 22.018,76.503 19.775,73.886 18,70.829 16.693,67.333 15.384,63.836 14.73,60.086 14.73,56.082 c 0,-3.791 0.574,-7.341 1.722,-10.65 1.148,-3.311 2.804,-6.194 4.966,-8.649 2.161,-2.456 4.777,-4.392 7.847,-5.805 3.07,-1.415 6.5,-2.123 10.291,-2.123 m -29.07,3.204 H 8.885 c -2.403,0 -3.938,0.732 -4.605,2.202 -0.668,1.468 -1.001,3.403 -1.001,5.805 v 62.13 h -7.207 v -62.13 c 0,-2.029 0.107,-3.657 0.322,-4.884 0.211,-1.229 0.599,-2.203 1.16,-2.923 0.56,-0.721 1.307,-1.201 2.242,-1.442 0.933,-0.24 2.095,-0.36 3.483,-0.36 h 7.207 z m -83.522,10.93 c -0.588,-2.963 -1.642,-5.432 -3.163,-7.407 -1.522,-1.976 -3.604,-3.457 -6.246,-4.444 -2.643,-0.988 -6.02,-1.482 -10.13,-1.482 -3.899,0 -7.154,0.494 -9.77,1.482 -2.616,0.987 -4.712,2.468 -6.286,4.444 -1.576,1.975 -2.696,4.444 -3.364,7.407 -0.668,2.963 -1.001,6.393 -1.001,10.29 v 20.42 c 0,2.404 -0.334,4.338 -1,5.807 -0.669,1.468 -2.203,2.202 -4.606,2.202 h -1.601 v 1.602 h 7.207 c 1.389,0 2.549,-0.121 3.484,-0.361 0.933,-0.24 1.682,-0.72 2.241,-1.441 0.562,-0.721 0.948,-1.71 1.163,-2.963 0.212,-1.255 0.32,-2.871 0.32,-4.846 V 50.877 c 0,-2.83 0.24,-5.353 0.721,-7.567 0.48,-2.216 1.281,-4.098 2.402,-5.646 1.121,-1.549 2.575,-2.736 4.364,-3.563 1.787,-0.829 4.017,-1.242 6.687,-1.242 3.043,0 5.605,0.401 7.687,1.202 2.082,0.8 3.764,2.042 5.045,3.723 1.281,1.682 2.189,3.804 2.723,6.366 0.533,2.563 0.801,5.606 0.801,9.129 V 83.31 h 3.203 V 53.279 c 0,-3.897 -0.294,-7.327 -0.881,-10.29" /></g></g></g></g></svg>