<?xml version="1.0" encoding="UTF-8" standalone="no"?>
<svg
   xmlns:dc="http://purl.org/dc/elements/1.1/"
   xmlns:cc="http://creativecommons.org/ns#"
   xmlns:rdf="http://www.w3.org/1999/02/22-rdf-syntax-ns#"
   xmlns:svg="http://www.w3.org/2000/svg"
   xmlns="http://www.w3.org/2000/svg"
   viewBox="0 0 360.51868 360.51868"
   height="360.51868"
   width="360.51868"
   xml:space="preserve"
   id="svg2"
   version="1.1"><metadata
     id="metadata8"><rdf:RDF><cc:Work
         rdf:about=""><dc:format>image/svg+xml</dc:format><dc:type
           rdf:resource="http://purl.org/dc/dcmitype/StillImage" /></cc:Work></rdf:RDF></metadata><defs
     id="defs6"><clipPath
       id="clipPath28"
       clipPathUnits="userSpaceOnUse"><path
         id="path26"
         d="M 0,270.389 H 270.389 V 0 H 0 Z" /></clipPath></defs><g
     transform="matrix(1.3333333,0,0,-1.3333333,0,360.51867)"
     id="g10"><path
       id="path12"
       style="fill:#f8f7f5;fill-opacity:1;fill-rule:nonzero;stroke:none"
       d="M 251.26,19.129 H 19.129 v 232.13 H 251.26 Z" /><g
       transform="translate(135.1944,270.3888)"
       id="g14"><path
         id="path16"
         style="fill:#f8f7f5;fill-opacity:1;fill-rule:nonzero;stroke:none"
         d="M 0,0 -135.194,-135.194 0,-270.389 135.194,-135.194 Z" /></g><g
       transform="translate(117.0958,177.2494)"
       id="g18"><path
         id="path20"
         style="fill:#ae2443;fill-opacity:1;fill-rule:nonzero;stroke:none"
         d="m 0,0 -4.072,-1.687 -4.112,4.112 0.343,-5.672 -4.253,-3.769 h 5.815 l 1.686,-4.071 1.687,4.071 h 4.163 l -2.944,2.945 z m 22.909,11.914 v 2.647 1.679 2.231 l -4.759,4.758 -4.757,-4.758 v -2.79 -1.12 -2.647 L 18.15,9.942 Z m -33.332,2.647 h 6.73 l -4.638,4.637 h -6.73 v -6.729 l 4.638,-4.637 z m 0,-50.418 -4.638,-4.638 v -6.73 h 6.73 l 4.638,4.638 h -6.73 z M -17.5,-9.255 h -6.559 l -4.758,-4.758 4.758,-4.758 h 6.559 l -4.759,4.758 z m 28.653,-21.652 -2.944,-2.944 -4.071,1.687 1.686,-4.072 -4.111,-4.112 h 5.975 l 3.465,-3.91 v 5.815 l 4.072,1.686 -4.072,1.687 z m 23.436,43.228 -5.672,-0.342 -3.769,4.252 V 10.417 L 21.077,8.73 25.148,7.044 V 2.881 l 2.945,2.944 4.071,-1.686 -1.686,4.071 z m 4.619,-19.337 1.687,-4.071 1.686,4.071 h 5.815 L 44.142,-3.247 44.485,2.425 40.374,-1.687 36.302,0 37.988,-4.071 35.045,-7.016 Z M 13.393,-28.668 v -4.905 l 4.757,-1.972 4.759,1.972 v 4.905 l -4.759,4.759 z m 3.174,22.968 -3.174,3.175 v -4.491 h 1.859 z m -1.315,-15.311 h -1.859 v -4.49 l 3.174,3.176 z m 26.468,-9.842 2.765,-2.765 v -6.73 h -6.729 l -2.765,2.766 -1.872,1.872 1.971,4.758 4.759,1.971 z" /></g><g
       id="g22"><g
         clip-path="url(#clipPath28)"
         id="g24"><g
           transform="translate(135.4259,67.3363)"
           id="g30"><path
             id="path32"
             style="fill:#3f4252;fill-opacity:1;fill-rule:nonzero;stroke:none"
             d="m 0,0 c -0.542,0 -0.98,-0.438 -0.98,-0.98 0,-0.542 0.438,-0.982 0.98,-0.982 0.542,0 0.981,0.44 0.981,0.982 C 0.981,-0.438 0.542,0 0,0 m 61.982,-0.98 c 0,0.834 -0.085,1.589 -0.254,2.265 -0.171,0.676 -0.415,1.252 -0.733,1.729 -0.317,0.475 -0.705,0.84 -1.164,1.092 -0.458,0.253 -0.976,0.379 -1.551,0.379 -0.576,0 -1.093,-0.126 -1.551,-0.379 C 56.27,3.854 55.882,3.489 55.564,3.014 55.247,2.537 55.003,1.961 54.833,1.285 54.662,0.609 54.577,-0.146 54.577,-0.98 c 0,-0.835 0.085,-1.59 0.256,-2.266 0.17,-0.677 0.414,-1.252 0.731,-1.729 0.318,-0.475 0.706,-0.84 1.165,-1.092 0.458,-0.253 0.975,-0.379 1.551,-0.379 0.575,0 1.093,0.126 1.551,0.379 0.459,0.252 0.847,0.617 1.164,1.092 0.318,0.477 0.562,1.052 0.733,1.729 0.169,0.676 0.254,1.431 0.254,2.266 m 1.764,0 c 0,-0.871 -0.127,-1.679 -0.379,-2.425 -0.253,-0.746 -0.617,-1.399 -1.094,-1.957 -0.475,-0.559 -1.051,-0.996 -1.727,-1.314 -0.676,-0.317 -1.432,-0.476 -2.266,-0.476 -0.835,0 -1.59,0.159 -2.265,0.476 -0.677,0.318 -1.252,0.755 -1.729,1.314 -0.476,0.558 -0.841,1.211 -1.094,1.957 -0.252,0.746 -0.379,1.554 -0.379,2.425 0,0.857 0.127,1.663 0.379,2.416 0.253,0.752 0.618,1.407 1.094,1.965 0.477,0.558 1.052,0.996 1.729,1.314 0.675,0.317 1.43,0.475 2.265,0.475 0.834,0 1.59,-0.158 2.266,-0.475 0.676,-0.318 1.252,-0.756 1.727,-1.314 0.477,-0.558 0.841,-1.213 1.094,-1.965 0.252,-0.753 0.379,-1.559 0.379,-2.416 M 45.897,18.045 c 1.112,-0.614 2.367,-0.92 3.764,-0.92 1.397,0 2.652,0.306 3.764,0.92 1.113,0.612 2.054,1.497 2.824,2.651 0.77,1.156 1.361,2.553 1.775,4.193 0.413,1.639 0.621,3.471 0.621,5.497 0,2.024 -0.208,3.856 -0.621,5.496 -0.414,1.639 -1.005,3.037 -1.775,4.192 -0.77,1.155 -1.711,2.039 -2.824,2.653 -1.112,0.613 -2.367,0.919 -3.764,0.919 -1.397,0 -2.652,-0.306 -3.764,-0.919 -1.113,-0.614 -2.053,-1.498 -2.824,-2.653 -0.769,-1.155 -1.361,-2.553 -1.775,-4.192 -0.413,-1.64 -0.62,-3.472 -0.62,-5.496 0,-2.026 0.207,-3.858 0.62,-5.497 0.414,-1.64 1.006,-3.037 1.775,-4.193 0.771,-1.154 1.711,-2.039 2.824,-2.651 M 51.781,-6.09 h 0.353 V -6.8 h -1.587 c -0.306,0 -0.685,0.028 -0.89,0.08 -0.206,0.053 -0.371,0.158 -0.494,0.318 -0.123,0.158 -0.209,0.373 -0.256,0.643 -0.047,0.27 -0.07,0.629 -0.07,1.075 v 20.138 c -1.697,0.092 -3.261,0.452 -4.672,1.114 -1.641,0.771 -3.038,1.832 -4.192,3.188 -1.156,1.353 -2.04,2.936 -2.653,4.748 -0.614,1.81 -0.92,3.77 -0.92,5.882 0,2.081 0.306,4.035 0.92,5.86 0.613,1.824 1.497,3.415 2.653,4.77 1.154,1.354 2.551,2.417 4.192,3.186 1.639,0.771 3.471,1.155 5.496,1.155 2.025,0 3.857,-0.384 5.496,-1.155 1.641,-0.769 3.037,-1.832 4.193,-3.186 1.155,-1.355 2.039,-2.946 2.652,-4.77 0.612,-1.825 0.92,-3.779 0.92,-5.86 0,-2.112 -0.308,-4.072 -0.92,-5.882 C 61.389,22.692 60.505,21.109 59.35,19.756 58.194,18.4 56.798,17.339 55.157,16.568 53.763,15.914 52.22,15.555 50.547,15.457 V -4.326 c 0,-0.529 0.073,-0.955 0.221,-1.278 0.146,-0.324 0.485,-0.486 1.013,-0.486 m -6.915,5.11 c 0,0.775 -0.114,1.483 -0.342,2.125 -0.228,0.64 -0.546,1.189 -0.956,1.648 -0.409,0.458 -0.897,0.811 -1.464,1.058 -0.567,0.247 -1.183,0.37 -1.849,0.37 -0.258,0 -0.535,-0.024 -0.834,-0.071 -0.298,-0.046 -0.605,-0.117 -0.92,-0.212 v -9.891 c 0.689,-0.152 1.285,-0.23 1.789,-0.23 0.643,0 1.244,0.121 1.806,0.362 0.56,0.241 1.046,0.588 1.455,1.041 0.409,0.452 0.73,0.999 0.965,1.639 0.233,0.641 0.35,1.361 0.35,2.161 m 1.49,2.459 c 0.288,-0.711 0.432,-1.507 0.432,-2.389 0,-0.859 -0.139,-1.649 -0.414,-2.371 C 46.098,-4.005 45.688,-4.625 45.148,-5.142 44.607,-5.659 43.935,-6.064 43.13,-6.358 42.324,-6.652 41.387,-6.8 40.317,-6.8 h -3.491 v 9.169 c 0,0.529 -0.074,0.955 -0.221,1.278 -0.147,0.324 -0.485,0.486 -1.014,0.486 h -0.352 v 0.705 h 4.619 c 1.164,0 2.181,-0.135 3.051,-0.405 0.869,-0.271 1.59,-0.653 2.16,-1.147 0.57,-0.493 0.999,-1.096 1.287,-1.807 M 33.407,-1.774 c 0,-0.776 -0.059,-1.446 -0.177,-2.01 -0.118,-0.565 -0.317,-1.031 -0.599,-1.403 -0.282,-0.37 -0.652,-0.642 -1.11,-0.819 -0.459,-0.177 -1.024,-0.265 -1.694,-0.265 -0.588,0 -1.078,0.091 -1.473,0.274 -0.393,0.182 -0.713,0.443 -0.959,0.784 -0.248,0.341 -0.424,0.756 -0.53,1.243 -0.106,0.489 -0.159,1.044 -0.159,1.667 v 5.026 c 0,0.434 -0.023,0.79 -0.07,1.066 -0.047,0.276 -0.132,0.493 -0.256,0.652 -0.123,0.16 -0.288,0.265 -0.493,0.318 -0.206,0.053 -0.462,0.079 -0.768,0.079 H 23.532 V 4.133 h 0.354 c 0.528,0 0.866,-0.162 1.013,-0.486 0.147,-0.323 0.22,-0.749 0.22,-1.278 v -4.143 c 0,-0.858 0.073,-1.614 0.221,-2.266 0.146,-0.652 0.393,-1.196 0.74,-1.631 0.347,-0.434 0.809,-0.762 1.385,-0.978 0.575,-0.218 1.293,-0.327 2.151,-0.327 0.905,0 1.649,0.109 2.231,0.327 0.582,0.216 1.04,0.544 1.375,0.978 0.335,0.435 0.566,0.979 0.696,1.631 0.13,0.652 0.194,1.408 0.194,2.266 V 4.838 H 33.407 Z M 13.683,4.715 C 13.489,4.632 13.336,4.526 13.225,4.397 13.112,4.268 13.036,4.118 12.995,3.947 12.954,3.777 12.934,3.604 12.934,3.428 V 2.105 h 0.352 c 0,0.706 0.192,1.219 0.573,1.542 0.382,0.324 0.926,0.486 1.631,0.486 h 1.587 V -6.8 h 1.587 V 4.133 h 3.968 v 0.705 h -8.199 c -0.306,0 -0.556,-0.041 -0.75,-0.123 M -4.734,-3.89 -10.905,3.78 c -0.272,0.329 -0.591,0.588 -0.961,0.776 -0.371,0.188 -0.844,0.282 -1.42,0.282 h -1.147 V 4.133 h 0.177 c 0.611,0 1.028,-0.162 1.252,-0.486 0.224,-0.323 0.335,-0.749 0.335,-1.278 V -6.8 h 0.705 v 9.258 l 7.582,-9.434 h 0.353 V 4.838 h -0.705 z m -12.607,1.858 c -0.2,-0.199 -0.326,-0.42 -0.38,-0.661 -0.052,-0.242 -0.079,-0.485 -0.079,-0.732 v -2.404 c -0.341,-0.189 -0.722,-0.339 -1.146,-0.45 -0.423,-0.112 -0.952,-0.167 -1.587,-0.167 -0.575,0 -1.119,0.093 -1.631,0.281 -0.511,0.188 -0.961,0.503 -1.349,0.943 -0.387,0.442 -0.693,1.024 -0.917,1.746 -0.223,0.723 -0.335,1.614 -0.335,2.671 0,0.659 0.079,1.306 0.239,1.941 0.158,0.635 0.408,1.198 0.749,1.692 0.34,0.493 0.778,0.894 1.313,1.199 0.535,0.306 1.179,0.458 1.931,0.458 1.069,0 1.555,-0.258 2.173,-0.775 0.617,-0.518 1.037,-1.287 1.26,-2.311 h 0.71 c 0,0.201 -0.003,0.413 -0.007,0.635 -0.007,0.224 -0.022,0.442 -0.045,0.653 -0.024,0.211 -0.068,0.415 -0.132,0.608 -0.066,0.194 -0.151,0.355 -0.256,0.485 -0.317,0.388 -0.835,0.72 -1.552,0.996 -0.717,0.277 -1.61,0.414 -2.68,0.414 -0.834,0 -1.589,-0.155 -2.265,-0.466 -0.677,-0.312 -1.252,-0.739 -1.729,-1.279 -0.476,-0.541 -0.84,-1.175 -1.092,-1.904 -0.253,-0.729 -0.38,-1.511 -0.38,-2.346 0,-0.881 0.147,-1.707 0.441,-2.476 0.293,-0.771 0.705,-1.444 1.234,-2.02 0.529,-0.576 1.161,-1.028 1.896,-1.357 0.734,-0.329 1.542,-0.494 2.424,-0.494 0.858,0 1.634,0.089 2.328,0.264 0.693,0.177 1.357,0.459 1.992,0.847 v 2.289 c 0,0.259 0.015,0.49 0.044,0.696 0.029,0.206 0.091,0.382 0.186,0.53 0.093,0.146 0.228,0.257 0.405,0.335 0.177,0.076 0.405,0.114 0.687,0.114 v 0.715 c -0.658,0 -1.18,-0.062 -1.569,-0.185 -0.388,-0.124 -0.682,-0.285 -0.881,-0.485 M -28.57,-5.604 c -0.147,0.323 -0.22,0.749 -0.22,1.278 V 16.27 38.727 l 18.394,-22.885 h 0.855 v 28.66 h -1.711 V 23.327 l -14.972,18.609 c -0.656,0.797 -1.433,1.424 -2.332,1.881 -0.897,0.456 -2.046,0.685 -3.443,0.685 h -2.779 v -0.856 h 0.427 c 1.482,0 2.495,-0.392 3.038,-1.176 0.541,-0.784 0.812,-1.819 0.812,-3.102 V 16.27 -4.684 c 0,-0.446 0.023,-0.805 0.071,-1.075 0.047,-0.27 0.132,-0.485 0.256,-0.643 0.123,-0.16 0.287,-0.265 0.493,-0.318 0.206,-0.052 0.585,-0.08 0.891,-0.08 h 1.587 v 0.71 h -0.353 c -0.529,0 -0.867,0.162 -1.014,0.486 m 39.846,3.38 c -0.175,0.23 -0.402,0.447 -0.678,0.653 -0.277,0.205 -0.603,0.42 -0.979,0.643 L 7.45,0.359 C 7.133,0.548 6.851,0.727 6.604,0.897 6.356,1.067 6.151,1.241 5.986,1.417 5.822,1.594 5.698,1.781 5.616,1.981 5.534,2.182 5.493,2.411 5.493,2.669 c 0,0.27 0.059,0.518 0.175,0.741 0.117,0.223 0.269,0.411 0.456,0.565 0.187,0.152 0.402,0.269 0.647,0.352 0.246,0.082 0.498,0.123 0.754,0.123 0.994,0 1.392,-0.253 1.953,-0.758 0.56,-0.505 0.94,-1.352 1.138,-2.539 h 0.731 V 3.04 c 0,0.328 -0.118,0.626 -0.353,0.89 C 10.759,4.194 10.459,4.418 10.095,4.601 9.73,4.782 9.322,4.92 8.87,5.015 8.417,5.108 7.974,5.155 7.538,5.155 7.021,5.155 6.554,5.085 6.137,4.944 5.719,4.803 5.36,4.601 5.062,4.336 4.761,4.071 4.529,3.757 4.364,3.393 4.2,3.027 4.117,2.616 4.117,2.158 4.117,1.5 4.273,0.941 4.585,0.483 4.896,0.024 5.428,-0.428 6.181,-0.875 L 8.35,-2.162 c 0.646,-0.376 1.13,-0.746 1.454,-1.11 0.323,-0.366 0.485,-0.806 0.485,-1.324 0,-0.294 -0.064,-0.552 -0.192,-0.775 C 9.968,-5.595 9.798,-5.783 9.588,-5.936 9.377,-6.088 9.135,-6.203 8.86,-6.279 8.586,-6.355 8.297,-6.394 7.993,-6.394 7,-6.394 6.566,-6.136 5.988,-5.618 5.409,-5.101 5.021,-4.249 4.823,-3.062 H 4.117 v -1.886 c 0,-0.329 0.121,-0.626 0.362,-0.891 0.241,-0.264 0.552,-0.49 0.934,-0.679 0.383,-0.187 0.812,-0.332 1.287,-0.431 0.477,-0.1 0.955,-0.15 1.438,-0.15 0.564,0 1.072,0.077 1.525,0.229 0.452,0.152 0.838,0.373 1.154,0.661 0.319,0.288 0.562,0.632 0.733,1.032 0.17,0.4 0.256,0.846 0.256,1.34 0,0.329 -0.044,0.623 -0.133,0.882 -0.088,0.258 -0.22,0.502 -0.397,0.731 m -44.769,0 c -0.176,0.23 -0.403,0.447 -0.678,0.653 -0.277,0.205 -0.603,0.42 -0.979,0.643 l -2.169,1.287 c -0.317,0.189 -0.6,0.368 -0.846,0.538 -0.247,0.17 -0.453,0.344 -0.617,0.52 -0.165,0.177 -0.289,0.364 -0.371,0.564 -0.082,0.201 -0.123,0.43 -0.123,0.688 0,0.27 0.058,0.518 0.175,0.741 0.117,0.223 0.269,0.411 0.455,0.565 0.187,0.152 0.404,0.269 0.649,0.352 0.245,0.082 0.496,0.123 0.753,0.123 0.993,0 1.391,-0.253 1.952,-0.758 0.562,-0.505 0.94,-1.352 1.14,-2.539 h 0.73 V 3.04 c 0,0.328 -0.118,0.626 -0.352,0.89 -0.236,0.264 -0.536,0.488 -0.9,0.671 -0.364,0.181 -0.773,0.319 -1.225,0.414 -0.454,0.093 -0.897,0.14 -1.331,0.14 -0.518,0 -0.986,-0.07 -1.403,-0.211 -0.417,-0.141 -0.775,-0.343 -1.075,-0.608 -0.3,-0.265 -0.532,-0.579 -0.696,-0.943 -0.165,-0.366 -0.247,-0.777 -0.247,-1.235 0,-0.658 0.155,-1.217 0.466,-1.675 0.312,-0.459 0.844,-0.911 1.596,-1.358 l 2.169,-1.287 c 0.647,-0.376 1.132,-0.746 1.455,-1.11 0.323,-0.366 0.486,-0.806 0.486,-1.324 0,-0.294 -0.066,-0.552 -0.194,-0.775 -0.129,-0.224 -0.298,-0.412 -0.508,-0.565 -0.211,-0.152 -0.453,-0.267 -0.727,-0.343 -0.276,-0.076 -0.565,-0.115 -0.868,-0.115 -0.994,0 -1.426,0.258 -2.004,0.776 -0.579,0.517 -0.968,1.369 -1.166,2.556 h -0.705 v -1.886 c 0,-0.329 0.12,-0.626 0.361,-0.891 0.24,-0.264 0.553,-0.49 0.935,-0.679 0.381,-0.187 0.811,-0.332 1.287,-0.431 0.475,-0.1 0.955,-0.15 1.437,-0.15 0.564,0 1.072,0.077 1.525,0.229 0.453,0.152 0.837,0.373 1.155,0.661 0.317,0.288 0.561,0.632 0.731,1.032 0.171,0.4 0.256,0.846 0.256,1.34 0,0.329 -0.044,0.623 -0.132,0.882 -0.089,0.258 -0.22,0.502 -0.397,0.731 m -10.076,-3.429 c -0.465,-0.294 -1.097,-0.441 -1.896,-0.441 h -3.086 v 4.937 h 4.761 v 0.705 h -4.761 v 4.585 h 3.28 c 0.706,0 1.249,-0.162 1.631,-0.486 0.381,-0.323 0.573,-0.836 0.573,-1.542 h 0.353 v 1.323 c 0,0.176 -0.021,0.349 -0.062,0.519 -0.041,0.171 -0.118,0.321 -0.229,0.45 -0.112,0.129 -0.266,0.235 -0.459,0.318 -0.194,0.082 -0.443,0.123 -0.749,0.123 h -7.512 V 4.133 h 0.353 c 0.529,0 0.867,-0.162 1.014,-0.486 0.147,-0.323 0.22,-0.749 0.22,-1.278 V -6.8 h 6.083 c 0.353,0 0.638,0.08 0.856,0.238 0.217,0.16 0.373,0.374 0.468,0.644 l 0.616,1.675 -0.353,0.089 c -0.27,-0.705 -0.637,-1.205 -1.101,-1.499 m -11.012,4.673 c 0,0.775 -0.114,1.483 -0.342,2.125 -0.228,0.64 -0.547,1.189 -0.956,1.648 -0.409,0.458 -0.897,0.811 -1.465,1.058 -0.566,0.247 -1.183,0.37 -1.849,0.37 -0.257,0 -0.536,-0.024 -0.833,-0.071 -0.298,-0.046 -0.606,-0.117 -0.92,-0.212 v -9.891 c 0.689,-0.152 1.285,-0.23 1.788,-0.23 0.643,0 1.245,0.121 1.806,0.362 0.561,0.241 1.046,0.588 1.456,1.041 0.409,0.452 0.73,0.999 0.963,1.639 0.235,0.641 0.352,1.361 0.352,2.161 m 1.49,2.459 c 0.287,-0.711 0.432,-1.507 0.432,-2.389 0,-0.859 -0.139,-1.649 -0.414,-2.371 -0.278,-0.724 -0.686,-1.344 -1.227,-1.861 -0.54,-0.517 -1.213,-0.922 -2.018,-1.216 -0.806,-0.294 -1.744,-0.442 -2.813,-0.442 h -3.491 v 9.169 c 0,0.529 -0.073,0.955 -0.221,1.278 -0.146,0.324 -0.484,0.486 -1.013,0.486 h -0.353 v 0.705 h 4.62 c 1.164,0 2.18,-0.135 3.051,-0.405 0.869,-0.271 1.589,-0.653 2.159,-1.147 0.57,-0.493 0.999,-1.096 1.288,-1.807 M 21.13,15.414 c 1.283,0 2.487,0.114 3.614,0.342 1.126,0.228 2.174,0.62 3.144,1.177 0.969,0.555 1.875,1.283 2.716,2.181 0.841,0.899 1.604,2.017 2.29,3.358 l -0.856,0.641 c -1.198,-1.939 -2.567,-3.422 -4.107,-4.448 -1.539,-1.027 -3.379,-1.54 -5.518,-1.54 -1.825,0 -3.387,0.37 -4.684,1.112 -1.298,0.742 -2.361,1.711 -3.187,2.909 -0.827,1.198 -1.434,2.567 -1.818,4.106 -0.385,1.54 -0.578,3.108 -0.578,4.706 0,2.566 0.271,4.72 0.813,6.459 0.542,1.739 1.283,3.145 2.225,4.214 0.941,1.069 2.032,1.839 3.272,2.309 1.24,0.471 2.56,0.706 3.957,0.706 2.366,0 4.284,-0.656 5.753,-1.967 1.469,-1.313 2.474,-3.366 3.016,-6.16 h 0.856 c 0,1.283 -0.043,2.509 -0.129,3.678 -0.086,1.169 -0.399,2.082 -0.941,2.739 -0.77,0.94 -2.01,1.746 -3.721,2.417 -1.711,0.668 -3.751,1.004 -6.117,1.004 -1.825,0 -3.544,-0.399 -5.155,-1.198 C 14.363,43.36 12.959,42.263 11.762,40.866 10.563,39.468 9.615,37.835 8.917,35.968 8.218,34.1 7.869,32.097 7.869,29.958 c 0,-2.025 0.306,-3.922 0.919,-5.689 0.613,-1.769 1.498,-3.309 2.652,-4.621 1.156,-1.311 2.553,-2.345 4.193,-3.1 1.639,-0.756 3.471,-1.134 5.497,-1.134 M 5.602,17.125 H 4.746 c -1.283,0 -2.103,0.392 -2.46,1.177 -0.356,0.783 -0.534,1.817 -0.534,3.1 v 33.189 h -3.85 V 21.402 c 0,-1.084 0.057,-1.953 0.171,-2.609 0.114,-0.656 0.321,-1.176 0.62,-1.562 0.3,-0.384 0.699,-0.641 1.199,-0.769 C 0.39,16.333 1.01,16.27 1.752,16.27 h 3.85 z m -44.616,5.839 c -0.314,-1.583 -0.877,-2.902 -1.689,-3.957 -0.814,-1.055 -1.925,-1.847 -3.337,-2.374 -1.411,-0.528 -3.215,-0.791 -5.411,-0.791 -2.082,0 -3.821,0.263 -5.219,0.791 -1.397,0.527 -2.517,1.319 -3.357,2.374 -0.842,1.055 -1.441,2.374 -1.797,3.957 -0.357,1.583 -0.535,3.415 -0.535,5.497 v 10.907 c 0,1.283 -0.179,2.318 -0.535,3.102 -0.357,0.784 -1.176,1.176 -2.46,1.176 h -0.855 v 0.856 h 3.85 c 0.741,0 1.362,-0.064 1.861,-0.192 0.498,-0.129 0.898,-0.385 1.197,-0.771 0.3,-0.385 0.506,-0.913 0.62,-1.583 0.115,-0.67 0.172,-1.533 0.172,-2.588 v -12.19 c 0,-1.513 0.128,-2.86 0.385,-4.043 0.257,-1.184 0.685,-2.189 1.283,-3.016 0.599,-0.827 1.375,-1.462 2.331,-1.903 0.955,-0.443 2.146,-0.663 3.572,-0.663 1.625,0 2.995,0.214 4.107,0.641 1.112,0.428 2.01,1.091 2.695,1.99 0.684,0.898 1.168,2.032 1.453,3.4 0.286,1.369 0.429,2.994 0.429,4.877 v 16.041 h 1.711 V 28.461 c 0,-2.082 -0.157,-3.914 -0.471,-5.497" /></g><g
           transform="translate(118.8185,203.0883)"
           id="g34"><path
             id="path36"
             style="fill:#3f4252;fill-opacity:1;fill-rule:nonzero;stroke:none"
             d="m 0,0 0.354,-6.641 h -7.241 l 4.638,-4.637 h 6.557 0.318 l 0.168,0.201 4.637,4.637 V 0.118 L 4.452,-4.859 Z m 1.203,-24.627 -1.972,-4.758 3.47,-3.469 h 6.73 v 6.729 l -3.47,3.47 z M 11.67,-75.503 v -6.559 l 4.758,-4.757 4.759,4.757 v 6.559 l -4.759,-4.758 z m -16.299,28.653 -1.686,4.073 -1.687,-4.073 h -5.814 l 4.253,-3.767 -0.343,-5.673 4.111,4.111 4.072,-1.686 -1.686,4.072 2.943,2.943 z m 53.541,11.756 h -3.075 -0.835 -2.648 l -1.97,-4.758 1.97,-4.758 h 2.648 1.671 2.239 l 4.759,4.758 z m -27.725,2.24 v 4.49 l -3.175,-3.175 1.315,-1.315 z m 7.568,-29.221 4.111,-4.112 -5.672,0.344 -3.768,-4.254 v 5.815 l -4.072,1.686 4.072,1.687 v 4.163 l 2.944,-2.943 4.071,1.686 z" /></g><g
           transform="translate(113.5489,148.268)"
           id="g38"><path
             id="path40"
             style="fill:#bcb7a9;fill-opacity:1;fill-rule:nonzero;stroke:none"
             d="m 0,0 -1.872,-1.871 -2.765,-2.766 v -6.729 h 6.73 l 2.764,2.765 1.872,1.872 -1.97,4.758 z m 40.375,-13.605 h -6.558 -0.275 l -0.21,-0.201 -4.637,-4.637 v -6.559 l 4.978,4.979 4.453,-4.86 -0.355,6.64 h 7.242 z M 10.21,10.21 h 4.49 v 1.86 l -1.315,1.315 z M 4.342,39.054 2.093,41.303 h -6.73 v -6.73 l 2.765,-2.764 0.006,0.005 1.866,-1.877 4.759,1.97 1.97,4.759 -2.379,2.396 z M 48.18,48.18 43.542,43.542 h 6.729 v -6.729 l 4.638,4.637 v 6.73 z M 16.939,57.178 V 50.62 l 4.758,4.758 4.759,-4.758 v 6.558 l -4.759,4.759 z M 23.281,6.656 26.456,3.48 v 4.491 h -1.859 z m 12.144,15.31 h -6.73 v 6.729 l 3.47,3.47 4.758,-1.972 1.971,-4.757 z" /></g><g
           transform="translate(151.6749,203.0883)"
           id="g42"><path
             id="path44"
             style="fill:#5b5c70;fill-opacity:1;fill-rule:nonzero;stroke:none"
             d="M 0,0 -4.453,-4.859 -9.431,0.118 V -6.44 l 4.637,-4.637 0.231,-0.201 h 0.254 6.558 l 4.638,4.637 h -7.241 z m -21.187,-20.291 v -4.906 l 4.758,-4.758 4.759,4.758 v 4.906 l -4.759,1.971 z m -2.239,4.869 v 5.815 l -3.768,-4.253 -5.672,0.342 4.111,-4.111 -1.686,-4.071 4.071,1.686 2.944,-2.944 v 4.163 l 4.072,1.687 z m -26.414,-17.432 4.637,4.637 0.201,0.182 v 0.304 6.557 l -4.638,4.638 v -7.241 l -6.64,0.353 4.859,-4.452 -4.977,-4.978 z m 4.838,-2.24 h -0.836 -3.074 l -4.759,-4.758 4.759,-4.758 h 2.239 1.671 2.648 l 1.97,4.758 -1.97,4.758 z m 11.377,-15.224 1.972,-4.759 4.757,-1.971 3.47,3.469 v 6.729 h -6.729 z m 8.884,12.049 1.315,1.316 v 1.859 h -4.49 z M -49.84,-46.85 h -6.558 l 4.977,-4.977 -4.859,-4.453 6.64,0.354 v -7.241 l 4.638,4.638 v 6.557 0.239 l -0.201,0.247 z m 48.067,11.756 -4.759,-4.758 4.759,-4.758 h 4.906 l 1.971,4.758 -1.971,4.758 z m 18.756,-11.756 -4.636,-4.636 -0.201,-0.232 v -0.254 -6.557 l 4.637,-4.638 v 7.241 l 6.641,-0.354 -4.86,4.453 4.978,4.977 z m 8.798,11.756 h -6.558 l 4.757,-4.758 -4.757,-4.758 h 6.558 l 4.758,4.758 z m -30.721,0 h -4.491 v -1.859 l 1.316,-1.316 z m -16.247,-30.684 v -2.648 -0.835 -3.075 l 4.758,-4.758 4.759,4.758 v 3.075 0.835 2.648 l -4.759,1.97 z m 18.486,18.928 3.469,-3.468 -1.971,-4.759 -4.758,-1.971 -3.47,3.469 v 6.729 z" /></g><g
           transform="translate(123.3575,134.6625)"
           id="g46"><path
             id="path48"
             style="fill:#da7a86;fill-opacity:1;fill-rule:nonzero;stroke:none"
             d="m 0,0 h -0.231 -6.557 l -4.638,-4.638 h 7.241 l -0.354,-6.639 4.452,4.859 4.979,-4.978 v 6.558 L 0.255,-0.2 Z m -2.766,23.815 4.759,4.759 -4.759,4.758 h -4.906 l -1.971,-4.758 1.971,-4.759 z m 36.878,-7.568 4.112,-4.111 -0.344,5.673 4.254,3.767 h -5.815 l -1.686,4.072 -1.687,-4.072 h -4.163 l 2.912,-3.019 -1.655,-3.996 z m -0.525,27.295 1.871,1.872 2.766,2.765 v 6.729 h -6.73 L 28.896,52.31 28.729,52.144 26.857,50.271 28.828,45.513 Z M 40.463,0 h -6.73 l 4.638,-4.638 h 6.73 v 6.73 L 40.463,6.729 Z M 18.887,25.676 v -1.861 h 4.49 l -3.175,3.175 z m 27.995,14.874 4.859,4.452 -6.64,-0.354 v 7.242 l -4.638,-4.638 v -6.558 -0.276 l 0.201,-0.209 4.637,-4.638 h 6.558 z M 16.647,30.545 18.618,28.574 16.647,26.604 V 23.815 H 13.86 l -1.971,-1.97 -1.971,1.97 H 7.131 v 2.788 l -1.972,1.971 1.972,1.971 v 2.787 h 2.787 l 1.971,1.972 1.971,-1.972 h 2.787 z" /></g></g></g></g></svg>