<svg xmlns="http://www.w3.org/2000/svg" xmlns:xlink="http://www.w3.org/1999/xlink"><symbol id="icon-stages-binoculars" viewBox="0 0 485 485">
<path d="M373.75,131.25c-41.348,0-77.496,22.676-96.671,56.242l-19.579-9.421V147.5h-30v30.572l-19.579,9.421  c-19.175-33.567-55.323-56.243-96.671-56.243C49.907,131.25,0,181.157,0,242.5s49.907,111.25,111.25,111.25  c43.371,0,81.021-24.951,99.361-61.25h63.777c18.341,36.299,55.99,61.25,99.361,61.25c61.344,0,111.25-49.907,111.25-111.25  S435.094,131.25,373.75,131.25z M111.25,323.75C66.449,323.75,30,287.301,30,242.5s36.449-81.25,81.25-81.25  s81.25,36.449,81.25,81.25S156.051,323.75,111.25,323.75z M220.695,262.5c1.183-6.49,1.805-13.174,1.805-20  c0-9.352-1.166-18.435-3.349-27.119l23.349-11.235l23.349,11.235c-2.183,8.684-3.349,17.767-3.349,27.119  c0,6.826,0.622,13.51,1.805,20H220.695z M373.75,323.75c-44.802,0-81.25-36.449-81.25-81.25s36.448-81.25,81.25-81.25  S455,197.699,455,242.5S418.552,323.75,373.75,323.75z"/>
<g>
</g>
<g>
</g>
<g>
</g>
<g>
</g>
<g>
</g>
<g>
</g>
<g>
</g>
<g>
</g>
<g>
</g>
<g>
</g>
<g>
</g>
<g>
</g>
<g>
</g>
<g>
</g>
<g>
</g>
</symbol><symbol id="icon-stages-coffee-cup" viewBox="0 0 511.988 511.988">
<g>
	<g>
		<path d="M394.655,202.654H95.988c-17.643,0-32,14.357-32,32v21.333c0,76.117,42.048,145.152,109.717,180.16    c5.227,2.688,11.669,0.661,14.379-4.587c2.688-5.227,0.661-11.669-4.587-14.379c-60.544-31.317-98.176-93.077-98.176-161.195    v-21.333c0-5.888,4.779-10.667,10.667-10.667h298.667c5.888,0,10.667,4.779,10.667,10.667v21.333    c0,68.117-37.632,129.877-98.197,161.173c-5.248,2.709-7.275,9.152-4.587,14.379c1.899,3.669,5.632,5.781,9.493,5.781    c1.664,0,3.328-0.384,4.885-1.195c67.691-34.987,109.739-104,109.739-180.139v-21.333    C426.655,217.011,412.297,202.654,394.655,202.654z"/>
	</g>
</g>
<g>
	<g>
		<path d="M489.865,422.558c-1.664-3.989-5.547-6.592-9.856-6.592H10.676c-4.309,0-8.192,2.603-9.856,6.592    c-1.664,3.989-0.747,8.576,2.304,11.627l23.915,23.936c14.123,14.101,32.853,21.867,52.8,21.867h330.965    c19.947,0,38.699-7.765,52.843-21.867l23.915-23.936C490.612,431.134,491.529,426.547,489.865,422.558z M448.543,443.038    c-10.069,10.069-23.488,15.616-37.717,15.616H79.839c-14.229,0-27.648-5.547-37.717-15.616l-5.717-5.717H454.26L448.543,443.038z"/>
	</g>
</g>
<g>
	<g>
		<path d="M491.359,253.022c-28.736-18.475-74.645,1.579-79.787,3.904c-5.355,2.453-7.744,8.768-5.291,14.144    c2.453,5.376,8.747,7.744,14.144,5.291c10.283-4.672,43.264-15.744,59.392-5.355c7.275,4.672,10.837,13.739,10.837,27.648    c0,42.709-86.144,68.523-119.403,74.88l-7.552,1.493c-5.781,1.131-9.536,6.741-8.405,12.523c1.003,5.077,5.461,8.597,10.453,8.597    c0.683,0,1.365-0.064,2.069-0.213l7.488-1.472c5.589-1.067,136.683-26.773,136.683-95.808    C511.988,277.193,505.034,261.854,491.359,253.022z"/>
	</g>
</g>
<g>
	<g>
		<path d="M328.372,113.31c17.344-21.675,17.344-55.616,0-77.291c-3.691-4.608-10.368-5.376-14.997-1.664    c-4.608,3.691-5.355,10.389-1.664,14.997c10.987,13.717,10.987,36.907-0.021,50.667c-17.365,21.675-17.365,55.616,0,77.291    c2.112,2.645,5.205,4.011,8.341,4.011c2.325,0,4.693-0.768,6.656-2.347c4.608-3.691,5.355-10.411,1.664-14.997    C317.343,150.259,317.343,127.07,328.372,113.31z"/>
	</g>
</g>
<g>
	<g>
		<path d="M264.287,113.31c17.365-21.675,17.365-55.616,0-77.291c-3.669-4.608-10.389-5.355-14.997-1.664    c-4.608,3.691-5.355,10.411-1.664,14.997c11.008,13.717,11.008,36.907-0.021,50.667c-17.344,21.675-17.344,55.616,0,77.291    c2.112,2.645,5.205,4.011,8.341,4.011c2.325,0,4.672-0.768,6.656-2.347c4.608-3.691,5.355-10.389,1.664-14.997    C253.279,150.259,253.279,127.07,264.287,113.31z"/>
	</g>
</g>
<g>
	<g>
		<path d="M200.372,113.331c17.344-21.675,17.344-55.616,0-77.291c-3.669-4.608-10.368-5.376-14.997-1.664    c-4.587,3.669-5.333,10.389-1.664,14.976c10.987,13.717,10.987,36.907-0.021,50.667c-17.365,21.675-17.365,55.616,0,77.291    c2.112,2.645,5.205,4.011,8.341,4.011c2.325,0,4.693-0.768,6.656-2.325c4.608-3.691,5.355-10.411,1.664-14.997    C189.343,150.259,189.343,127.091,200.372,113.331z"/>
	</g>
</g>
<g>
</g>
<g>
</g>
<g>
</g>
<g>
</g>
<g>
</g>
<g>
</g>
<g>
</g>
<g>
</g>
<g>
</g>
<g>
</g>
<g>
</g>
<g>
</g>
<g>
</g>
<g>
</g>
<g>
</g>
</symbol><symbol id="icon-stages-cube" viewBox="0 0 511.999 511.999">
<g>
	<g>
		<rect x="404.661" y="336.684" transform="matrix(0.5 -0.866 0.866 0.5 -93.7079 539.2849)" width="31.052" height="28.226"/>
	</g>
</g>
<g>
	<g>
		<rect x="363.919" y="313.152" transform="matrix(0.5 -0.866 0.866 0.5 -93.6993 492.236)" width="31.052" height="28.226"/>
	</g>
</g>
<g>
	<g>
		<rect x="282.453" y="266.121" transform="matrix(0.5 -0.866 0.866 0.5 -93.7019 398.1691)" width="31.052" height="28.226"/>
	</g>
</g>
<g>
	<g>
		<rect x="323.173" y="289.634" transform="matrix(0.5 -0.866 0.866 0.5 -93.7051 445.1899)" width="31.052" height="28.226"/>
	</g>
</g>
<g>
	<g>
		<path d="M255.998,0L34.297,128v255.999l221.703,128l221.703-128V128L255.998,0z M240.473,467.179L65.35,366.071V163.856    l175.123,101.108V467.179z M255.998,238.072L80.876,136.964L255.998,35.856l175.123,101.108L255.998,238.072z M271.525,467.179    V264.963l175.122-101.108v202.216h0.001L271.525,467.179z"/>
	</g>
</g>
<g>
	<g>
		<rect x="199.914" y="264.689" transform="matrix(0.866 -0.5 0.5 0.866 -111.4352 144.5599)" width="28.226" height="31.052"/>
	</g>
</g>
<g>
	<g>
		<rect x="77.669" y="335.289" transform="matrix(0.866 -0.5 0.5 0.866 -163.1138 92.8945)" width="28.226" height="31.052"/>
	</g>
</g>
<g>
	<g>
		<rect x="159.168" y="288.238" transform="matrix(0.866 -0.5 0.5 0.866 -128.6691 127.341)" width="28.226" height="31.052"/>
	</g>
</g>
<g>
	<g>
		<rect x="118.42" y="311.756" transform="matrix(0.866 -0.5 0.5 0.866 -145.888 110.1181)" width="28.226" height="31.052"/>
	</g>
</g>
<g>
	<g>
		<rect x="240.472" y="146.373" width="31.053" height="28.227"/>
	</g>
</g>
<g>
	<g>
		<rect x="240.472" y="193.428" width="31.053" height="28.227"/>
	</g>
</g>
<g>
	<g>
		<rect x="240.472" y="99.328" width="31.053" height="28.227"/>
	</g>
</g>
<g>
	<g>
		<rect x="240.472" y="52.272" width="31.053" height="28.227"/>
	</g>
</g>
<g>
</g>
<g>
</g>
<g>
</g>
<g>
</g>
<g>
</g>
<g>
</g>
<g>
</g>
<g>
</g>
<g>
</g>
<g>
</g>
<g>
</g>
<g>
</g>
<g>
</g>
<g>
</g>
<g>
</g>
</symbol><symbol id="icon-stages-design-tool" viewBox="0 0 512 512">
<g>
	<g>
		<path d="M494.479,123.595C505.778,112.297,512,97.229,512,81.166c0-16.063-6.222-31.132-17.521-42.429L473.264,17.52    C461.967,6.222,446.898,0,430.836,0c-16.064,0-31.131,6.222-42.43,17.52L255.979,149.946L106.185,0.15L0.109,106.226    l149.796,149.795L35.358,370.568L0,512l141.433-35.359l114.546-114.546l149.795,149.796l106.073-106.074L362.054,256.021    L494.479,123.595z M409.621,38.733c5.63-5.629,13.165-8.731,21.215-8.731c8.049,0,15.583,3.101,21.215,8.733l21.215,21.215    c5.631,5.631,8.733,13.166,8.733,21.215s-3.102,15.583-8.733,21.215l-10.607,10.607l-63.645-63.645L409.621,38.733z     M377.798,70.557l63.645,63.645l-21.216,21.216l-63.645-63.645L377.798,70.557z M42.539,106.226l63.645-63.645l28.717,28.717    l-21.215,21.215l21.215,21.215l21.215-21.215l28.717,28.717l-21.215,21.215l21.215,21.215l21.215-21.215l28.717,28.717    l-63.645,63.645L42.539,106.226z M335.368,112.988l21.216,21.215L91.333,399.452l-21.215-21.215L335.368,112.988z M41.234,470.766    l15.797-63.187l47.39,47.39L41.234,470.766z M133.763,441.881l-21.215-21.215l265.249-265.249l21.215,21.215L133.763,441.881z     M369.556,305.953l-21.215,21.215l21.215,21.215l21.215-21.215l28.717,28.717l-21.215,21.215l21.215,21.215l21.215-21.215    l28.717,28.717l-63.645,63.645l-128.58-128.58l63.645-63.645L369.556,305.953z"/>
	</g>
</g>
<g>
</g>
<g>
</g>
<g>
</g>
<g>
</g>
<g>
</g>
<g>
</g>
<g>
</g>
<g>
</g>
<g>
</g>
<g>
</g>
<g>
</g>
<g>
</g>
<g>
</g>
<g>
</g>
<g>
</g>
</symbol><symbol id="icon-stages-file-checked" viewBox="0 0 236.816 236.816">
<g>
	<path d="M40.062,71.278h50c4.143,0,7.5-3.357,7.5-7.5s-3.357-7.5-7.5-7.5h-50c-4.143,0-7.5,3.357-7.5,7.5   S35.919,71.278,40.062,71.278z"/>
	<path d="M40.062,106.553h109.331c4.143,0,7.5-3.357,7.5-7.5c0-4.142-3.357-7.5-7.5-7.5H40.062   c-4.143,0-7.5,3.358-7.5,7.5C32.562,103.195,35.919,106.553,40.062,106.553z"/>
	<path d="M198.113,143.124l-19.474,22.646c-0.195,0.228-0.425,0.286-0.582,0.296   c-0.153,0.006-0.393-0.021-0.615-0.225l-13.508-12.278c-2.046-1.859-5.206-1.706-7.063,0.336c-1.857,2.043-1.706,5.205,0.337,7.063   l13.507,12.278c2.02,1.837,4.582,2.827,7.277,2.827c0.225,0,0.451-0.007,0.678-0.02c2.941-0.181,5.623-1.515,7.552-3.758   l19.474-22.645c1.801-2.094,1.563-5.25-0.531-7.051C203.071,140.793,199.915,141.029,198.113,143.124z"/>
	<path d="M236.735,159.607c0-28.057-20.933-51.303-47.998-54.978V69.369c0-7.48-4.003-17.096-9.311-22.367   L141.374,9.223C136.078,3.965,126.456,0,118.993,0H17.582c-9.649,0-17.5,7.851-17.5,17.5v201.816c0,9.649,7.851,17.5,17.5,17.5   h153.655c9.649,0,17.5-7.851,17.5-17.5v-4.731C215.802,210.91,236.735,187.664,236.735,159.607z M167.479,56.278h-30.424   c-1.355,0-2.5-1.145-2.5-2.5V23.59L167.479,56.278z M171.237,221.816H17.582c-1.356,0-2.5-1.145-2.5-2.5V17.5   c0-1.355,1.144-2.5,2.5-2.5h101.411c0.181,0,0.371,0.01,0.563,0.021v38.757c0,9.649,7.851,17.5,17.5,17.5h36.682v33.352   c-15.26,2.072-28.564,10.361-37.271,22.235c-0.244-0.024-0.491-0.038-0.741-0.038H40.062c-4.143,0-7.5,3.357-7.5,7.5   c0,4.143,3.357,7.5,7.5,7.5h88.616c-1.895,5.586-2.938,11.562-2.938,17.78c0,8.011,1.72,15.623,4.788,22.508H99.393   c-4.143,0-7.5,3.357-7.5,7.5c0,4.143,3.357,7.5,7.5,7.5h36.331c1.37,0,2.649-0.373,3.755-1.014   c8.623,9.855,20.662,16.637,34.258,18.483v4.731C173.737,220.672,172.592,221.816,171.237,221.816z M181.237,200.105   c-22.33,0-40.497-18.166-40.497-40.498c0-22.331,18.167-40.498,40.497-40.498c22.331,0,40.498,18.167,40.498,40.498   C221.735,181.939,203.568,200.105,181.237,200.105z"/>
</g>
<g>
</g>
<g>
</g>
<g>
</g>
<g>
</g>
<g>
</g>
<g>
</g>
<g>
</g>
<g>
</g>
<g>
</g>
<g>
</g>
<g>
</g>
<g>
</g>
<g>
</g>
<g>
</g>
<g>
</g>
</symbol><symbol id="icon-stages-house-plan" viewBox="0 0 512 512">
<g>
	<g>
		<path d="M499.136,64.312l-160-32c-2.08-0.416-4.208-0.416-6.288,0L176,63.688L19.136,32.312c-4.704-0.96-9.568,0.272-13.28,3.312    C2.144,38.664,0,43.208,0,48.008v384c0,7.632,5.376,14.192,12.864,15.68l160,32c2.08,0.416,4.208,0.416,6.288,0L336,448.328    l156.864,31.36c1.04,0.208,2.096,0.32,3.136,0.32c3.664,0,7.264-1.264,10.144-3.632c3.712-3.04,5.856-7.568,5.856-12.368v-384    C512,72.376,506.624,65.8,499.136,64.312z M96,80.312l76.864,15.376c2.08,0.432,4.192,0.432,6.272,0L320,67.528v95.36    L177.024,191.48L96,164.472V80.312z M160,444.472l-128-25.6v-79.36l128,25.6V444.472z M480,444.472l-64-12.784v-76.8l64,10.656    V444.472z M480,333.112l-77.36-12.896c-4.656-0.784-9.392,0.528-12.976,3.568c-3.584,3.04-5.664,7.52-5.664,12.224v89.28    l-44.864-8.976c-2.08-0.416-4.192-0.416-6.272,0L192,444.488v-92.48c0-7.632-5.376-14.192-12.864-15.68L32,306.888v-45.376    l139.408,41.824c2.496,0.736,5.152,0.88,7.728,0.352L320,275.512v92.48h32v-112c0-4.8-2.144-9.328-5.856-12.368    c-3.696-3.04-8.592-4.272-13.28-3.312l-156.08,31.216L32,228.104V67.512l32,6.4v102.08c0,6.896,4.4,13.008,10.944,15.184l96,32    c1.648,0.544,3.344,0.816,5.056,0.816c1.04,0,2.096-0.096,3.136-0.32l160-32C346.624,190.2,352,183.624,352,176.008V67.528l32,6.4    v70.08c0,7.824,5.664,14.496,13.36,15.776L480,173.56V333.112z M480,141.112l-64-10.672V80.328l64,12.8V141.112z"/>
	</g>
</g>
<g>
</g>
<g>
</g>
<g>
</g>
<g>
</g>
<g>
</g>
<g>
</g>
<g>
</g>
<g>
</g>
<g>
</g>
<g>
</g>
<g>
</g>
<g>
</g>
<g>
</g>
<g>
</g>
<g>
</g>
</symbol><symbol id="icon-stages-idea" viewBox="0 0 511.997 511.997">
<g>
	<g>
		<path d="M57.318,166.155H12.746c-6.841,0-12.386,5.545-12.386,12.386s5.545,12.386,12.386,12.386h44.571    c6.842,0,12.387-5.545,12.387-12.386S64.159,166.155,57.318,166.155z"/>
	</g>
</g>
<g>
	<g>
		<path d="M499.251,166.155h-44.572c-6.84,0-12.386,5.545-12.386,12.386s5.546,12.386,12.386,12.386h44.572    c6.84,0,12.386-5.545,12.386-12.386S506.091,166.155,499.251,166.155z"/>
	</g>
</g>
<g>
	<g>
		<path d="M108.347,326.191c-4.837-4.837-12.679-4.837-17.517,0l-32.42,32.42c-4.837,4.837-4.837,12.679,0,17.517    c2.419,2.419,5.589,3.628,8.758,3.628s6.34-1.209,8.758-3.628l32.421-32.42C113.184,338.872,113.184,331.029,108.347,326.191z"/>
	</g>
</g>
<g>
	<g>
		<path d="M430.912,3.628c-4.838-4.837-12.678-4.837-17.517,0L381.863,35.16c-4.837,4.837-4.837,12.68,0,17.516    c2.42,2.417,5.59,3.627,8.759,3.627c3.171,0,6.339-1.21,8.758-3.628l31.531-31.531C435.748,16.307,435.748,8.464,430.912,3.628z"/>
	</g>
</g>
<g>
	<g>
		<path d="M130.117,35.142L98.602,3.628c-4.837-4.835-12.68-4.835-17.517,0c-4.837,4.837-4.837,12.68,0,17.517L112.6,52.66    c2.419,2.418,5.589,3.628,8.758,3.628s6.34-1.21,8.758-3.628C134.953,47.823,134.953,39.98,130.117,35.142z"/>
	</g>
</g>
<g>
	<g>
		<path d="M453.585,358.615l-32.3-32.303c-4.838-4.837-12.678-4.837-17.517,0.001c-4.837,4.837-4.837,12.68,0,17.516l32.301,32.301    c2.419,2.419,5.589,3.628,8.758,3.628c3.171,0,6.339-1.21,8.758-3.628C458.422,371.294,458.422,363.451,453.585,358.615z"/>
	</g>
</g>
<g>
	<g>
		<path d="M255.999,33.636c-85.648,0-155.327,72.885-155.327,162.474c0,41.65,14.919,86.482,40.933,123    c19.979,28.045,30.538,59.249,30.538,90.24v77.875c0,13.659,11.113,24.772,24.772,24.772h118.169    c13.659,0,24.772-11.113,24.772-24.772V409.35c0-30.99,10.559-62.195,30.536-90.24c26.014-36.517,40.934-81.35,40.934-123    C411.324,106.521,341.645,33.636,255.999,33.636z M315.082,487.227H196.913v-16.201h59.085c6.841,0,12.387-5.545,12.387-12.386    s-5.546-12.386-12.387-12.386h-59.085v-16.2h118.172l0.014,57.171C315.098,487.227,315.093,487.227,315.082,487.227z     M238.629,256.141l-16.564-35.387h67.866l-16.562,35.387c-0.652,1.393-1.039,2.896-1.142,4.43l-9.605,144.711h-13.247    l-9.605-144.711C239.668,259.037,239.28,257.534,238.629,256.141z M350.215,304.738c-22.123,31.056-34.208,65.733-35.082,100.544    h-27.684l9.341-140.749l23.831-50.915c1.796-3.836,1.507-8.325-0.767-11.899c-2.273-3.573-6.215-5.738-10.451-5.738H202.592    c-4.236,0-8.177,2.165-10.451,5.738c-2.273,3.573-2.563,8.062-0.767,11.898l23.832,50.915l9.341,140.749h-27.686    c-0.874-34.812-12.958-69.488-35.082-100.544c-22.754-31.942-36.338-72.551-36.338-108.628    c0-75.93,58.567-137.702,130.555-137.702s130.555,61.772,130.555,137.702C386.553,232.188,372.969,272.797,350.215,304.738z"/>
	</g>
</g>
<g>
</g>
<g>
</g>
<g>
</g>
<g>
</g>
<g>
</g>
<g>
</g>
<g>
</g>
<g>
</g>
<g>
</g>
<g>
</g>
<g>
</g>
<g>
</g>
<g>
</g>
<g>
</g>
<g>
</g>
</symbol><symbol id="icon-stages-pencil-and-paper" viewBox="0 0 661.543 661.544">
<g>
	<g>
		<path d="M628.351,389.866l-49.869-49.868c-6.797-6.798-14.244-10.038-22.989-10.038c-7.447,0-14.196,2.963-20.075,8.746    l-39.824,39.182L336.599,536.876c-2.915,3.564-4.407,6.507-4.856,8.096l-26.555,94.225c-0.552,1.969-0.967,3.883-0.967,5.831    c0,8.096,7.771,16.517,17.809,16.517c2.266,0,3.896-0.276,5.181-0.649l93.583-27.203c3.171-0.919,5.823-1.948,7.771-3.883    l159.962-159.637l39.175-39.183c5.181-5.181,8.097-11.66,9.07-19.425C636.772,402.819,633.857,395.372,628.351,389.866z     M406.867,601.313l-58.932,16.517l17.159-58.932l143.127-143.127l42.415,41.772L406.867,601.313z M575.892,432.281l-42.415-41.772    l22.665-22.665l41.772,41.772L575.892,432.281z"/>
		<path d="M383.552,311.502H105.078c-10.038,0-17.809,7.771-17.809,17.809s7.771,18.133,17.809,18.133h278.475    c10.037,0,17.809-8.096,17.809-18.133S393.589,311.502,383.552,311.502z"/>
		<path d="M401.361,409.616c0-10.037-7.771-17.809-17.809-17.809H105.078c-10.038,0-17.809,7.771-17.809,17.809    s7.771,18.134,17.809,18.134h278.475C393.589,427.75,401.361,419.653,401.361,409.616z"/>
		<path d="M234.278,471.464h-129.2c-10.038,0-17.809,7.771-17.809,17.809s7.771,17.809,17.809,17.809h129.2    c10.037,0,18.133-7.771,18.133-17.809S244.315,471.464,234.278,471.464z"/>
		<path d="M234.278,551.77h-129.2c-10.038,0-17.809,7.771-17.809,17.809s7.771,17.809,17.809,17.809h129.2    c10.037,0,18.133-7.771,18.133-17.809S244.315,551.77,234.278,551.77z"/>
		<path d="M60.714,622.68V38.857c0-2.266,0.974-3.24,3.24-3.24h132.765v192.346c0,22.022,16.835,39.832,38.851,39.832h192.346v108.8    h35.942v-108.8v-35.942h-0.649L232.336,0.649L231.687,0h-34.968H63.954C52.943,0,43.555,3.882,36.108,11.336    c-7.454,7.447-11.336,16.835-11.336,27.521V622.68c0,22.022,17.16,38.857,39.182,38.857h211.447V625.92H63.954    C61.688,625.92,60.714,624.952,60.714,622.68z M232.336,51.485l180.361,180.361H235.569c-2.266,0-3.233-1.299-3.233-3.882V51.485    L232.336,51.485z"/>
	</g>
</g>
<g>
</g>
<g>
</g>
<g>
</g>
<g>
</g>
<g>
</g>
<g>
</g>
<g>
</g>
<g>
</g>
<g>
</g>
<g>
</g>
<g>
</g>
<g>
</g>
<g>
</g>
<g>
</g>
<g>
</g>
</symbol><symbol id="icon-top-close-menu" viewBox="0 0 22.199 22.199">
  <polygon points="22.199,2.804 19.396,0 11.1,8.297 2.804,0 0,2.803 8.297,11.1 0,19.396 2.803,22.199 11.1,13.902 19.396,22.199 22.199,19.396 13.903,11.1 "/>
</symbol><symbol id="icon-top-open-menu" viewBox="0 0 22.928 21.982">
  <g>
    <rect width="22.928" height="3.964"/>
    <rect y="9.009" width="22.928" height="3.964"/>
    <rect y="18.018" width="22.928" height="3.964"/>
  </g>
</symbol></svg>